<?xml version="1.0" standalone="no"?>
<!DOCTYPE svg PUBLIC "-//W3C//DTD SVG 1.1//EN" "http://www.w3.org/Graphics/SVG/1.1/DTD/svg11.dtd" >
<svg xmlns="http://www.w3.org/2000/svg">
<metadata>Generated by IcoMoon</metadata>
<defs>
<font id="Light-Outfittery-Iconset" horiz-adv-x="1024">
<font-face units-per-em="1024" ascent="960" descent="-64" />
<missing-glyph horiz-adv-x="1024" />
<glyph unicode="&#x20;" horiz-adv-x="512" d="" />
<glyph unicode="&#xe600;" glyph-name="light-wardrobe" d="M936.77 914.015v18.963h-849.541v-993.659h37.926v113.778h769.896v-113.778h37.926l3.793 974.696zM125.156 895.052h367.881v-804.030h-367.881v804.030zM898.844 91.022h-367.881v804.030h367.881v-804.030zM633.363 402.015v109.985h37.926v-109.985h-37.926zM394.43 512v-109.985h-37.926v109.985h37.926z" />
<glyph unicode="&#xe601;" glyph-name="light-chevron-round-down" d="M512-7.585c242.726 0 443.733 201.007 443.733 443.733s-197.215 443.733-443.733 443.733-443.733-197.215-443.733-443.733 201.007-443.733 443.733-443.733zM512 841.955c223.763 0 405.807-182.044 405.807-405.807s-182.044-405.807-405.807-405.807c-223.763 0-405.807 182.044-405.807 405.807s182.044 405.807 405.807 405.807zM750.933 530.963l-26.548 22.756-212.385-227.556-216.178 231.348-26.548-22.756 242.726-257.896z" />
<glyph unicode="&#xe602;" glyph-name="light-chevron-round-right" d="M68.267 436.148c0-242.726 201.007-443.733 443.733-443.733s443.733 197.215 443.733 443.733-197.215 443.733-443.733 443.733-443.733-201.007-443.733-443.733zM917.807 436.148c0-223.763-182.044-405.807-405.807-405.807s-405.807 182.044-405.807 405.807c0 223.763 182.044 405.807 405.807 405.807s405.807-182.044 405.807-405.807zM640.948 436.148l-227.556-216.178 22.756-26.548 254.104 242.726-250.311 238.933-22.756-26.548z" />
<glyph unicode="&#xe603;" glyph-name="light-chevron-round-up" d="M512 879.881c-242.726 0-443.733-201.007-443.733-443.733s197.215-443.733 443.733-443.733 443.733 197.215 443.733 443.733-201.007 443.733-443.733 443.733zM512 30.341c-223.763 0-405.807 182.044-405.807 405.807s182.044 405.807 405.807 405.807c223.763 0 405.807-182.044 405.807-405.807s-182.044-405.807-405.807-405.807zM273.067 341.333l26.548-22.756 212.385 227.556 216.178-231.348 26.548 22.756-242.726 257.896z" />
<glyph unicode="&#xe604;" glyph-name="light-chevron-round-left" d="M955.733 436.148c0 242.726-201.007 443.733-443.733 443.733s-443.733-197.215-443.733-443.733 197.215-443.733 443.733-443.733 443.733 201.007 443.733 443.733zM106.193 436.148c0 223.763 182.044 405.807 405.807 405.807s405.807-182.044 405.807-405.807c0-223.763-182.044-405.807-405.807-405.807s-405.807 182.044-405.807 405.807zM383.052 436.148l227.556 216.178-22.756 26.548-254.104-242.726 250.311-238.933 22.756 26.548z" />
<glyph unicode="&#xe605;" glyph-name="light-chevron-down" d="M512 219.97l-379.259 405.807 30.341 26.548 348.919-375.467 348.919 367.881 30.341-26.548z" />
<glyph unicode="&#xe606;" glyph-name="light-chevron-right" d="M322.37 56.889l-26.548 30.341 375.467 348.919-367.881 348.919 26.548 30.341 398.222-379.259z" />
<glyph unicode="&#xe607;" glyph-name="light-chevron-up" d="M860.919 219.97l-348.919 375.467-348.919-367.881-30.341 26.548 379.259 398.222 379.259-405.807z" />
<glyph unicode="&#xe608;" glyph-name="light-chevron-left" d="M694.044 56.889l-398.222 379.259 405.807 379.259 26.548-30.341-375.467-348.919 367.881-348.919z" />
<glyph unicode="&#xe609;" glyph-name="light-circle-arrow-round-up" d="M269.274 451.318l22.756-22.756 201.007 201.007v-443.733h37.926v443.733l201.007-201.007 22.756 22.756-242.726 242.726zM512 910.222c-261.689 0-474.074-212.385-474.074-474.074s212.385-474.074 474.074-474.074 474.074 212.385 474.074 474.074-212.385 474.074-474.074 474.074zM512 0c-242.726 0-436.148 193.422-436.148 436.148s193.422 436.148 436.148 436.148 436.148-193.422 436.148-436.148-193.422-436.148-436.148-436.148z" />
<glyph unicode="&#xe60a;" glyph-name="light-arrow-round-down" d="M754.726 420.978l-22.756 22.756-201.007-201.007v443.733h-37.926v-443.733l-201.007 201.007-22.756-22.756 242.726-242.726zM512-37.926c261.689 0 474.074 212.385 474.074 474.074s-212.385 474.074-474.074 474.074-474.074-212.385-474.074-474.074 212.385-474.074 474.074-474.074zM512 872.296c242.726 0 436.148-193.422 436.148-436.148s-193.422-436.148-436.148-436.148-436.148 193.422-436.148 436.148 193.422 436.148 436.148 436.148z" />
<glyph unicode="&#xe60b;" glyph-name="light-arrow-up" d="M792.652 504.415l-280.652 280.652-280.652-280.652 26.548-26.548 235.141 231.348v-621.985h37.926v621.985l235.141-231.348z" />
<glyph unicode="&#xe60c;" glyph-name="light-arrow-down" d="M231.348 367.881l280.652-280.652 280.652 280.652-26.548 26.548-235.141-231.348v621.985h-37.926v-621.985l-235.141 231.348z" />
<glyph unicode="&#xe60d;" glyph-name="light-cross-round" d="M512 879.881c-242.726 0-443.733-201.007-443.733-443.733s197.215-443.733 443.733-443.733 443.733 197.215 443.733 443.733-201.007 443.733-443.733 443.733zM512 30.341c-223.763 0-405.807 182.044-405.807 405.807s182.044 405.807 405.807 405.807c223.763 0 405.807-182.044 405.807-405.807s-182.044-405.807-405.807-405.807zM656.119 603.022l-144.119-144.119-144.119 144.119-22.756-22.756 144.119-144.119-144.119-144.119 22.756-22.756 144.119 144.119 144.119-144.119 22.756 22.756-144.119 144.119 144.119 144.119z" />
<glyph unicode="&#xe60e;" glyph-name="light-check-round" d="M512 879.881c-242.726 0-443.733-201.007-443.733-443.733s197.215-443.733 443.733-443.733 443.733 197.215 443.733 443.733-201.007 443.733-443.733 443.733zM512 30.341c-223.763 0-405.807 182.044-405.807 405.807s182.044 405.807 405.807 405.807c223.763 0 405.807-182.044 405.807-405.807s-182.044-405.807-405.807-405.807zM455.111 292.029l-163.081 174.459-26.548-22.756 189.63-201.007 322.37 337.541-26.548 22.756z" />
<glyph unicode="&#xe60f;" glyph-name="light-cross" d="M800.237 697.837l-26.548 26.548-261.689-261.689-261.689 261.689-26.548-26.548 261.689-261.689-261.689-261.689 26.548-26.548 261.689 261.689 261.689-261.689 26.548 26.548-261.689 261.689z" />
<glyph unicode="&#xe610;" glyph-name="light-facebook-round" d="M546.133 553.718c0 0-7.585 68.267 49.304 68.267 18.963 0 30.341 0 37.926 0v98.607h-117.57c0 0-91.022-3.793-91.022-106.193 0-15.17 0-34.133 0-60.681h-79.644v-94.815h79.644c0-128.948 0-288.237 0-288.237h117.57v288.237h91.022v94.815h-87.23zM512 910.222c-261.689 0-474.074-212.385-474.074-474.074s212.385-474.074 474.074-474.074 474.074 212.385 474.074 474.074-212.385 474.074-474.074 474.074zM512 0c-242.726 0-436.148 193.422-436.148 436.148s193.422 436.148 436.148 436.148 436.148-193.422 436.148-436.148-193.422-436.148-436.148-436.148z" />
<glyph unicode="&#xe611;" glyph-name="light-rss-round" d="M439.941 303.407c0-29.324-23.772-53.096-53.096-53.096s-53.096 23.772-53.096 53.096c0 29.324 23.772 53.096 53.096 53.096s53.096-23.772 53.096-53.096zM341.333 523.378v-83.437c91.022-15.17 163.081-87.23 185.837-182.044h87.23c-26.548 136.533-136.533 246.519-273.067 265.481zM337.541 682.667v-91.022c170.667-15.17 307.2-155.496 333.748-333.748h91.022c-30.341 223.763-204.8 405.807-424.77 424.77zM512 910.222c-261.689 0-474.074-212.385-474.074-474.074s212.385-474.074 474.074-474.074 474.074 212.385 474.074 474.074-212.385 474.074-474.074 474.074zM512 0c-242.726 0-436.148 193.422-436.148 436.148s193.422 436.148 436.148 436.148 436.148-193.422 436.148-436.148-193.422-436.148-436.148-436.148z" />
<glyph unicode="&#xe612;" glyph-name="light-instagram-round" d="M326.163 652.326c-18.963-7.585-34.133-26.548-34.133-49.304v-83.437h34.133v132.741zM621.985 436.148c0-60.681-49.304-109.985-109.985-109.985s-109.985 49.304-109.985 109.985c0 26.548 11.378 49.304 26.548 68.267h-136.533v-235.141c0-30.341 22.756-53.096 53.096-53.096h333.748c30.341 0 53.096 22.756 53.096 53.096v235.141h-136.533c15.17-18.963 26.548-41.719 26.548-68.267zM348.919 656.118h30.341v-136.533h-30.341v136.533zM565.096 436.148c0-29.324-23.772-53.096-53.096-53.096s-53.096 23.772-53.096 53.096c0 29.324 23.772 53.096 53.096 53.096s53.096-23.772 53.096-53.096zM678.874 656.118h-276.859v-136.533h41.719c18.963 15.17 45.511 26.548 72.059 26.548s53.096-11.378 72.059-26.548h147.911v83.437c-3.793 30.341-26.548 53.096-56.889 53.096zM697.837 553.718c0-7.585-3.793-11.378-11.378-11.378h-60.681c-7.585 0-11.378 3.793-11.378 11.378v60.681c0 7.585 3.793 11.378 11.378 11.378h60.681c7.585 0 11.378-3.793 11.378-11.378v-60.681zM512 910.222c-261.689 0-474.074-212.385-474.074-474.074s212.385-474.074 474.074-474.074 474.074 212.385 474.074 474.074-212.385 474.074-474.074 474.074zM512 0c-242.726 0-436.148 193.422-436.148 436.148s193.422 436.148 436.148 436.148 436.148-193.422 436.148-436.148-193.422-436.148-436.148-436.148z" />
<glyph unicode="&#xe613;" glyph-name="light-twitter-round" d="M709.215 557.511c0 0 30.341 22.756 37.926 49.304 0 0-45.511-22.756-60.681-22.756 0 0-60.681 53.096-125.156 11.378-56.889-37.926-30.341-102.4-30.341-102.4s-45.511 0-87.23 18.963c-41.719 18.963-106.193 60.681-113.778 87.23 0 0-41.719-72.059 26.548-128.948 0 0-30.341 3.793-41.719 15.17 0 0-3.793-72.059 75.852-94.815 0 0-30.341-7.585-41.719-3.793 0 0 18.963-60.681 87.23-64.474 0 0-68.267-56.889-140.326-37.926 0 0 136.533-91.022 280.652-7.585 128.948 75.852 136.533 189.63 136.533 250.311 0 0 34.133 30.341 45.511 45.511 0-3.793-30.341-22.756-49.304-15.17zM512 910.222c-261.689 0-474.074-212.385-474.074-474.074s212.385-474.074 474.074-474.074 474.074 212.385 474.074 474.074-212.385 474.074-474.074 474.074zM512 0c-242.726 0-436.148 193.422-436.148 436.148s193.422 436.148 436.148 436.148 436.148-193.422 436.148-436.148-193.422-436.148-436.148-436.148z" />
<glyph unicode="&#xe614;" glyph-name="light-linkedin-round" d="M690.252 652.326c-117.57 0-231.348 0-348.919 0-30.341 0-41.719-15.17-41.719-45.511 0-117.57 0-235.141 0-352.711 0-34.133 15.17-45.511 45.511-45.511 56.889 0 113.778 0 170.667 0 60.681 0 117.57 0 178.252 0 30.341 0 41.719 11.378 41.719 41.719 0 117.57 0 235.141 0 356.504 0 30.341-11.378 45.511-45.511 45.511zM428.563 284.444c-22.756 0-41.719 0-60.681 0 0 64.474 0 128.948 0 193.422 18.963 0 41.719 0 60.681 0 0-68.267 0-128.948 0-193.422zM402.015 508.207c-18.963 0-34.133 15.17-34.133 34.133s15.17 34.133 34.133 34.133 34.133-15.17 34.133-34.133-15.17-34.133-34.133-34.133zM671.289 284.444c-22.756 0-41.719 0-64.474 0 0 30.341 0 64.474 0 94.815 0 22.756 0 53.096-34.133 53.096-26.548 0-34.133-15.17-37.926-30.341v-117.57c-22.756 0-41.719 0-64.474 0 0 64.474 0 128.948 0 197.215v3.793h64.474v-22.756c75.852 45.511 132.741 15.17 132.741-75.852 3.793-34.133 3.793-68.267 3.793-102.4zM512 910.222c-261.689 0-474.074-212.385-474.074-474.074s212.385-474.074 474.074-474.074 474.074 212.385 474.074 474.074-212.385 474.074-474.074 474.074zM512 0c-242.726 0-436.148 193.422-436.148 436.148s193.422 436.148 436.148 436.148 436.148-193.422 436.148-436.148-193.422-436.148-436.148-436.148z" />
<glyph unicode="&#xe615;" glyph-name="light-xing-round" d="M621.985 659.911l-170.667-292.030 106.193-182.044h113.778l-109.985 182.044 170.667 292.030zM477.867 466.489l-68.267 109.985h-102.4l68.267-109.985-87.23-132.741h106.193l83.437 132.741zM512 910.222c-261.689 0-474.074-212.385-474.074-474.074s212.385-474.074 474.074-474.074 474.074 212.385 474.074 474.074-212.385 474.074-474.074 474.074zM512 0c-242.726 0-436.148 193.422-436.148 436.148s193.422 436.148 436.148 436.148 436.148-193.422 436.148-436.148-193.422-436.148-436.148-436.148z" />
<glyph unicode="&#xe616;" glyph-name="light-googleplus-round" d="M512 910.222c-261.689 0-474.074-212.385-474.074-474.074s212.385-474.074 474.074-474.074c261.689 0 474.074 212.385 474.074 474.074s-212.385 474.074-474.074 474.074zM512 0c-242.726 0-436.148 193.422-436.148 436.148s193.422 436.148 436.148 436.148 436.148-193.422 436.148-436.148-193.422-436.148-436.148-436.148zM781.274 477.867v68.267h-41.719v-68.267h-64.474v-41.719h64.474v-68.267h41.719v68.267h68.267v41.719zM584.059 386.844c-56.889 41.719-72.059 64.474-15.17 106.193 30.341 22.756 53.096 56.889 53.096 94.815 0 41.719-18.963 79.644-49.304 98.607h45.511l37.926 37.926c0 0-147.911 0-178.252 0-109.985 0-163.081-64.474-163.081-136.533 0-75.852 49.304-132.741 151.704-132.741-15.17-30.341-7.585-60.681 15.17-79.644-170.667 0-204.8-75.852-204.8-132.741 0-75.852 87.23-117.57 189.63-117.57 140.326 0 197.215 75.852 197.215 136.533-3.793 49.304-22.756 83.437-79.644 125.156zM379.259 591.644c-7.585 60.681 22.756 109.985 72.059 109.985s87.23-53.096 94.815-113.778c7.585-60.681-18.963-102.4-68.267-102.4-45.511 0-91.022 41.719-98.607 106.193zM462.696 159.289c-72.059 0-121.363 45.511-121.363 98.607s60.681 98.607 132.741 98.607c79.644 0 125.156-49.304 125.156-98.607-3.793-56.889-45.511-98.607-136.533-98.607z" />
<glyph unicode="&#xe617;" glyph-name="light-facebook" d="M587.852 587.852v-3.793h125.156v-128.948h-125.156v-398.222h-163.081c0 0 0 216.178 0 398.222h-109.985v128.948h109.985c0 34.133 0 64.474 0 83.437 0 144.119 125.156 147.911 125.156 147.911h163.081v-132.741c-7.585 0-22.756 0-49.304 0-87.23 0-75.852-94.815-75.852-94.815z" />
<glyph unicode="&#xe618;" glyph-name="light-rss" d="M341.333 193.422c0-39.797-32.262-72.059-72.059-72.059s-72.059 32.262-72.059 72.059c0 39.797 32.262 72.059 72.059 72.059s72.059-32.262 72.059-72.059zM462.696 128.948c-34.133 132.741-132.741 231.348-257.896 254.104v117.57c189.63-22.756 341.333-178.252 379.259-371.674h-121.363zM663.704 125.155c-41.719 250.311-231.348 443.733-466.489 466.489v128.948c303.407-22.756 549.926-273.067 591.644-591.644l-125.156-3.793z" />
<glyph unicode="&#xe619;" glyph-name="light-instagram" d="M254.104 735.763c-26.548-11.378-45.511-37.926-45.511-68.267v-113.778h45.511v182.044zM663.704 436.148c0-83.437-68.267-151.704-151.704-151.704s-151.704 68.267-151.704 151.704c0 37.926 11.378 72.059 34.133 98.607h-185.837v-326.163c0-41.719 34.133-72.059 72.059-72.059h462.696c41.719 0 72.059 34.133 72.059 72.059v326.163h-185.837c22.756-26.548 34.133-60.681 34.133-98.607zM284.444 739.555h37.926v-189.63h-37.926v189.63zM587.852 436.148c0-41.892-33.96-75.852-75.852-75.852s-75.852 33.96-75.852 75.852c0 41.892 33.96 75.852 75.852 75.852s75.852-33.96 75.852-75.852zM743.348 739.555h-386.844v-189.63h56.889c26.548 22.756 60.681 37.926 98.607 37.926s72.059-15.17 98.607-37.926h204.8v113.778c0 45.511-30.341 75.852-72.059 75.852zM773.689 599.229c0-7.585-7.585-15.17-15.17-15.17h-87.23c-7.585 0-15.17 7.585-15.17 15.17v87.23c0 7.585 7.585 15.17 15.17 15.17h87.23c7.585 0 15.17-7.585 15.17-15.17v-87.23z" />
<glyph unicode="&#xe61a;" glyph-name="light-twitter" d="M769.896 568.889c-3.793-83.437-11.378-242.726-193.422-345.126-197.215-113.778-386.844 11.378-386.844 11.378 98.607-26.548 193.422 53.096 193.422 53.096-91.022 7.585-117.57 91.022-117.57 91.022 18.963-3.793 60.681 3.793 60.681 3.793-109.985 30.341-106.193 132.741-106.193 132.741 15.17-15.17 56.889-18.963 56.889-18.963-98.607 79.644-37.926 182.044-37.926 182.044 7.585-30.341 98.607-94.815 159.289-117.57 56.889-26.548 121.363-26.548 121.363-26.548s-37.926 91.022 41.719 144.119c91.022 60.681 174.459-15.17 174.459-15.17 18.963 0 83.437 30.341 83.437 30.341-11.378-37.926-53.096-68.267-53.096-68.267 26.548-7.585 68.267 15.17 68.267 15.17-15.17-30.341-64.474-72.059-64.474-72.059z" />
<glyph unicode="&#xe61b;" glyph-name="light-linkdin" d="M815.407 682.667c0 45.511-18.963 60.681-64.474 60.681-159.289 0-322.37 0-481.659 0-41.719 0-60.681-18.963-60.681-64.474 0-163.081 0-326.163 0-485.452 0-49.304 18.963-64.474 64.474-64.474 79.644 3.793 155.496 0 235.141 0 83.437 0 163.081 0 246.519 0 41.719 0 60.681 18.963 60.681 56.889 0 166.874 0 329.956 0 496.83zM390.637 231.348c-30.341 0-56.889 0-87.23 0 0 91.022 0 178.252 0 269.274 30.341 0 56.889 0 87.23 0 0-91.022 0-178.252 0-269.274zM352.711 542.341c-26.548 0-49.304 22.756-49.304 49.304s22.756 49.304 49.304 49.304c26.548 0 49.304-22.756 49.304-49.304-3.793-26.548-26.548-49.304-49.304-49.304zM724.385 235.141c-30.341 0-56.889 0-91.022 0 0 41.719 0 87.23 0 128.948 0 34.133 0 72.059-45.511 72.059-34.133 0-45.511-18.963-49.304-45.511v-163.081c-30.341 0-56.889 0-87.23 0 0 91.022 0 178.252 0 269.274v7.585h87.23v-30.341c106.193 60.681 185.837 18.963 185.837-106.193 0-37.926 0-87.23 0-132.741z" />
<glyph unicode="&#xe61c;" glyph-name="light-xing" d="M584.059 360.296l235.141 402.015h-155.496l-235.141-402.015 151.704-250.311h155.496l-151.704 250.311zM470.281 496.829l-94.815 155.496h-144.119l94.815-155.496h-3.793l-117.57-182.044h144.119l121.363 182.044z" />
<glyph unicode="&#xe61d;" glyph-name="light-googleplus" d="M542.341 379.259c-79.644 56.889-98.607 91.022-22.756 147.911 41.719 34.133 72.059 75.852 72.059 132.741 0 60.681-22.756 109.985-68.267 140.326h64.474l53.096 53.096c0 0-204.8 0-246.519 0-151.704 0-227.556-91.022-227.556-193.422s72.059-182.044 208.593-182.044c-22.756-41.719-11.378-83.437 22.756-109.985-235.141 0-284.444-102.4-284.444-182.044 0-102.4 117.57-163.081 261.689-163.081 193.422 0 273.067 102.4 273.067 189.63-3.793 64.474-30.341 109.985-106.193 166.874zM257.896 663.704c-11.378 87.23 34.133 151.704 98.607 151.704 64.474-3.793 121.363-72.059 132.741-159.289s-26.548-144.119-91.022-140.326c-64.474 0-128.948 60.681-140.326 147.911zM375.467 64.474c-98.607 0-170.667 60.681-170.667 136.533 0 72.059 83.437 136.533 182.044 136.533 109.985 0 174.459-68.267 174.459-140.326s-60.681-132.741-185.837-132.741zM815.407 508.207v91.022h-56.889v-91.022h-91.022v-56.889h91.022v-94.815h56.889v94.815h94.815v56.889h-94.815z" />
<glyph unicode="&#xe61e;" glyph-name="light-paid" horiz-adv-x="1384" d="M364.089 705.422c0 91.022-72.059 163.081-163.081 163.081s-159.289-72.059-159.289-163.081 72.059-163.081 163.081-163.081 159.289 75.852 159.289 163.081zM201.007 584.059c-68.267 0-125.156 56.889-125.156 125.156s56.889 125.156 125.156 125.156c68.267 0 125.156-56.889 125.156-125.156s-56.889-125.156-125.156-125.156zM1247.763 595.437h-417.185c7.585 18.963 15.17 41.719 15.17 64.474 0 91.022-72.059 163.081-163.081 163.081s-163.081-72.059-163.081-163.081c0-26.548 7.585-49.304 15.17-72.059-34.133-15.17-60.681-49.304-60.681-87.23v-75.852c-22.756 11.378-49.304 18.963-75.852 18.963-91.022 0-163.081-72.059-163.081-163.081s72.059-163.081 163.081-163.081c26.548 0 53.096 7.585 75.852 18.963v-41.719c0-53.096 41.719-94.815 94.815-94.815h675.081c53.096 0 94.815 41.719 94.815 94.815v405.807c3.793 53.096-37.926 94.815-91.022 94.815zM402.015 155.496c-68.267 0-125.156 56.889-125.156 125.156s56.889 125.156 125.156 125.156c30.341 0 56.889-11.378 75.852-26.548v-193.422c-22.756-18.963-49.304-30.341-75.852-30.341zM682.667 785.067c68.267 0 125.156-56.889 125.156-125.156 0-22.756-7.585-45.511-18.963-64.474h-212.385c-11.378 18.963-18.963 41.719-18.963 64.474 0 68.267 56.889 125.156 125.156 125.156zM572.681 557.511h675.081c30.341 0 56.889-26.548 56.889-56.889v-56.889h-788.859v56.889c0 30.341 26.548 56.889 56.889 56.889zM1247.763 41.718h-675.081c-30.341 0-56.889 26.548-56.889 56.889v235.141h788.859v-235.141c0-30.341-22.756-56.889-56.889-56.889zM606.815 185.837h83.437v-75.852h-83.437v75.852zM747.141 185.837h83.437v-75.852h-83.437v75.852z" />
<glyph unicode="&#xe61f;" glyph-name="light-ordered" horiz-adv-x="785" d="M759.273 223.784l-61.091 194.909h2.909v378.182h-224v-29.091h194.909v-317.091h-558.545v317.091h194.909v29.091h-224v-378.182h2.909l-61.091-194.909v-279.273h733.091v279.273zM55.273 57.966v55.273c43.636 5.818 75.636 40.727 81.455 81.455h512c5.818-43.636 40.727-75.636 81.455-81.455v-55.273c-43.636-5.818-75.636-40.727-81.455-81.455h-512c-5.818 40.727-40.727 75.636-81.455 81.455zM119.273 418.693h549.818l61.091-194.909h-672l61.091 194.909zM293.818 628.148l98.909-98.909 98.909 98.909-20.364 20.364-64-64v343.273h-29.091v-343.273l-64 64z" />
<glyph unicode="&#xe620;" glyph-name="light-send-back" horiz-adv-x="1224" d="M832.979 635.637l-169.101 62.63 28.183 81.419c6.263 18.789-6.263 40.709-25.052 46.972l-169.101 62.63c-21.92 6.263-43.841-3.131-50.104-21.92l-28.183-81.419-169.101 62.63-150.312-410.226 585.59-212.942 147.18 410.226zM475.988 857.974c0 3.131 6.263 3.131 9.394 3.131l169.101-62.63c6.263-3.131 6.263-6.263 6.263-9.394l-25.052-78.287-187.89 68.893 28.183 78.287zM140.917 457.142l125.26 350.728 526.092-191.021-128.391-350.728-522.96 191.021zM441.541 638.769l-15.657 28.183-140.917-68.893 65.761-140.917 28.183 12.526-43.841 97.076 288.098-106.471 12.526 28.183-288.098 106.471zM28.183 319.356l551.144-200.416c0 6.263 3.131 9.394 6.263 15.657s3.131 9.394 6.263 12.526l-551.144 203.547-12.526-31.315zM1183.706 936.261l-153.443-68.893-225.468-620.037c3.131 0 9.394-3.131 12.526-3.131 6.263-3.131 9.394-3.131 15.657-6.263l222.336 607.511 140.917 62.63-12.526 28.183zM792.269 181.57c-12.526 3.131-25.052 6.263-37.578 6.263-46.972 0-90.813-31.315-106.471-75.156-9.394-28.183-9.394-59.498 3.131-84.55 12.526-28.183 34.446-46.972 62.63-59.498 12.526-3.131 25.052-6.263 37.578-6.263 46.972 0 90.813 31.315 106.471 75.156 21.92 56.367-6.263 122.128-65.761 144.049zM829.847 46.915c-15.657-40.709-62.63-62.63-103.339-50.104-21.92 6.263-37.578 21.92-46.972 40.709s-9.394 40.709-3.131 62.63c12.526 31.315 43.841 53.235 75.156 53.235 9.394 0 18.789-3.131 28.183-6.263 43.841-12.526 65.761-59.498 50.104-100.208z" />
<glyph unicode="&#xe621;" glyph-name="light-received" horiz-adv-x="1422" d="M1035.378 106.192l-151.704-26.548c-15.17 56.889-64.474 102.4-121.363 113.778v295.822c68.267 15.17 121.363 72.059 128.948 144.119l56.889-11.378c3.793-64.474 49.304-117.57 109.985-128.948v-189.63l37.926-41.719v375.467l-348.919 60.681h-3.793l-26.548-3.793v121.363c0 22.756-18.963 41.719-37.926 41.719 0 0-3.793 0-3.793 0l-307.2-37.926c-22.756 0-41.719-22.756-41.719-45.511v-109.985l-303.407-26.548v-557.511l720.593-60.681 109.985 18.963h34.133c0 0 0 0 0 0 0 3.793 0 3.793 0 7.585l174.459 30.341-26.548 30.341zM60.681 242.726v227.556c64.474 15.17 113.778 72.059 121.363 140.326l390.637 34.133c0-83.437 68.267-151.704 151.704-155.496v-288.237c-75.852 0-140.326-56.889-155.496-128.948l-371.674 34.133c-7.585 68.267-64.474 125.156-136.533 136.533zM364.089 773.689c0 7.585 3.793 11.378 7.585 11.378l307.2 37.926c0 0 0-3.793 0-3.793v-125.156l-310.993-30.341-3.793 109.985zM1369.126 458.904l-269.274-284.444-147.911 159.289-30.341-26.548 178.252-189.63 299.615 318.578z" />
<glyph unicode="&#xe622;" glyph-name="light-send-to-you" horiz-adv-x="1224" d="M538.618 228.542l585.59 212.942-147.18 407.095-169.101-62.63-28.183 81.419c-6.263 18.789-31.315 28.183-50.104 21.92l-169.101-62.63c-21.92-6.263-31.315-28.183-25.052-46.972l28.183-81.419-169.101-62.63 144.049-407.095zM566.801 798.475l169.101 62.63c0 0 3.131 0 3.131 0 3.131 0 6.263 0 6.263-3.131l28.183-81.419-187.89-68.893-28.183 81.419c3.131 3.131 3.131 6.263 9.394 9.394zM1083.498 457.142l-526.092-191.021-125.26 350.728 526.092 191.021 125.26-350.728zM598.116 460.273l291.229 106.471-43.841-97.076 28.183-12.526 65.761 140.917-140.917 68.893-15.657-28.183 93.945-43.841-288.098-106.471zM407.095 244.2c3.131 3.131 9.394 3.131 12.526 3.131l-225.468 623.168-153.443 65.761-12.526-28.183 140.917-62.63 222.336-607.511c6.263 3.131 9.394 6.263 15.657 6.263zM1183.706 350.671l-548.012-200.416c3.131-3.131 3.131-9.394 6.263-12.526 3.131-6.263 3.131-9.394 6.263-15.657l551.144 200.416-15.657 28.183zM469.725 187.833c-12.526 0-25.052-3.131-37.578-6.263-59.498-21.92-87.682-84.55-68.893-144.049 15.657-43.841 59.498-75.156 106.471-75.156 12.526 0 25.052 3.131 37.578 6.263 59.498 21.92 87.682 84.55 68.893 144.049-15.657 43.841-59.498 75.156-106.471 75.156zM497.908-3.189c-40.709-15.657-87.682 6.263-103.339 50.104-15.657 40.709 6.263 87.682 50.104 103.339 9.394 3.131 18.789 6.263 28.183 6.263 34.446 0 65.761-21.92 75.156-53.235 12.526-43.841-9.394-90.813-50.104-106.471z" />
<glyph unicode="&#xe623;" glyph-name="light-plus-round" d="M512 879.881c-242.726 0-443.733-201.007-443.733-443.733s197.215-443.733 443.733-443.733 443.733 197.215 443.733 443.733-201.007 443.733-443.733 443.733zM512 30.341c-223.763 0-405.807 182.044-405.807 405.807s182.044 405.807 405.807 405.807c223.763 0 405.807-182.044 405.807-405.807s-182.044-405.807-405.807-405.807zM527.17 656.118h-34.133v-204.8h-201.007v-34.133h201.007v-201.007h34.133v201.007h204.8v34.133h-204.8z" />
<glyph unicode="&#xe624;" glyph-name="light-minus-round" d="M512 879.881c-242.726 0-443.733-201.007-443.733-443.733s197.215-443.733 443.733-443.733 443.733 197.215 443.733 443.733-201.007 443.733-443.733 443.733zM512 30.341c-223.763 0-405.807 182.044-405.807 405.807s182.044 405.807 405.807 405.807c223.763 0 405.807-182.044 405.807-405.807s-182.044-405.807-405.807-405.807zM292.030 451.318h436.148v-34.133h-436.148v34.133z" />
<glyph unicode="&#xe625;" glyph-name="light-zoom-in" d="M978.489-7.585l-269.274 269.274c136.533 151.704 132.741 383.052-11.378 530.963-72.059 72.059-170.667 113.778-273.067 113.778s-197.215-41.719-273.067-113.778-113.778-170.667-113.778-273.067 41.719-197.215 113.778-273.067 170.667-113.778 273.067-113.778c98.607 0 189.63 34.133 257.896 102.4l269.274-269.274 26.548 26.548zM428.563 174.459c-91.022 0-178.252 34.133-242.726 102.4s-102.4 151.704-102.4 242.726 34.133 178.252 102.4 242.726 151.704 102.4 242.726 102.4c91.022 0 178.252-34.133 242.726-102.4 136.533-136.533 136.533-352.711 0-489.244-64.474-64.474-151.704-98.607-242.726-98.607zM447.526 750.933h-34.133v-212.385h-212.385v-34.133h212.385v-208.593h34.133v208.593h208.593v34.133h-208.593z" />
<glyph unicode="&#xe626;" glyph-name="light-zoom-out" d="M978.489-3.793l-269.274 269.274c64.474 72.059 98.607 163.081 98.607 257.896 0 102.4-41.719 197.215-113.778 273.067-72.059 72.059-170.667 113.778-273.067 113.778s-193.422-45.511-265.481-117.57-113.778-170.667-113.778-273.067 41.719-197.215 113.778-273.067 170.667-113.778 273.067-113.778c94.815 0 185.837 34.133 257.896 98.607l269.274-269.274 22.756 34.133zM428.563 174.459c-91.022 0-178.252 34.133-242.726 102.4s-102.4 151.704-102.4 242.726 34.133 178.252 102.4 242.726 151.704 102.4 242.726 102.4c91.022 0 178.252-34.133 242.726-102.4s102.4-151.704 102.4-242.726-34.133-178.252-102.4-242.726-151.704-102.4-242.726-102.4zM201.007 538.548h455.111v-34.133h-455.111v34.133z" />
<glyph unicode="&#xe627;" glyph-name="light-refresh" d="M822.993 743.348l-7.585 7.585h117.57v37.926h-182.044v-182.044h37.926v113.778l7.585-3.793c155.496-155.496 155.496-405.807 0-561.304-109.985-109.985-276.859-147.911-424.77-91.022l-15.17-34.133c53.096-18.963 106.193-30.341 159.289-30.341 113.778 0 223.763 45.511 307.2 128.948 166.874 170.667 166.874 447.526 0 614.4zM238.933 144.118l-11.378 11.378c-75.852 75.852-117.57 174.459-117.57 280.652s45.511 204.8 117.57 280.652c109.985 109.985 273.067 144.119 420.978 91.022l11.378 34.133c-159.289 60.681-341.333 18.963-458.904-98.607-79.644-83.437-125.156-189.63-125.156-307.2s45.511-227.556 128.948-307.2l7.585-7.585h-113.778v-37.926h182.044v182.044h-37.926v-121.363z" />
<glyph unicode="&#xe628;" glyph-name="light-repeat" d="M921.6 599.229l-34.133-15.17c18.963-49.304 30.341-98.607 30.341-151.704 0-223.763-182.044-405.807-405.807-405.807s-405.807 182.044-405.807 405.807c0 223.763 182.044 405.807 405.807 405.807 109.985 0 216.178-45.511 292.030-125.156h-121.363v-37.926h182.044v185.837h-37.926v-109.985c-83.437 83.437-193.422 128.948-314.785 128.948-242.726 0-443.733-201.007-443.733-443.733s197.215-443.733 443.733-443.733 443.733 197.215 443.733 443.733c0 56.889-11.378 113.778-34.133 163.081z" />
<glyph unicode="&#xe629;" glyph-name="light-question" d="M512 910.222c-261.689 0-474.074-212.385-474.074-474.074s212.385-474.074 474.074-474.074c261.689 0 474.074 212.385 474.074 474.074s-212.385 474.074-474.074 474.074zM512 0c-242.726 0-436.148 193.422-436.148 436.148s193.422 436.148 436.148 436.148 436.148-193.422 436.148-436.148-193.422-436.148-436.148-436.148zM477.867 242.726h60.681v-79.644h-60.681v79.644zM621.985 667.496c-15.17 11.378-30.341 18.963-49.304 26.548s-37.926 7.585-56.889 7.585c-26.548 0-49.304-3.793-72.059-11.378-18.963-7.585-37.926-18.963-53.096-34.133s-22.756-34.133-30.341-53.096-11.378-45.511-11.378-72.059h45.511c0 18.963 0 37.926 7.585 53.096s11.378 30.341 22.756 41.719c11.378 11.378 22.756 22.756 37.926 30.341s34.133 11.378 53.096 11.378c15.17 0 26.548-3.793 41.719-7.585 11.378-3.793 22.756-11.378 34.133-18.963s18.963-18.963 22.756-30.341c3.793-11.378 7.585-26.548 7.585-41.719 0-18.963-3.793-37.926-15.17-53.096s-18.963-30.341-34.133-41.719c-15.17-15.17-30.341-26.548-41.719-37.926s-18.963-22.756-26.548-34.133c-7.585-11.378-11.378-26.548-15.17-41.719s-3.793-34.133-3.793-56.889h45.511c0 22.756 0 41.719 3.793 53.096 0 11.378 3.793 22.756 7.585 30.341s11.378 15.17 18.963 26.548c7.585 7.585 22.756 18.963 37.926 34.133 18.963 18.963 34.133 37.926 45.511 56.889s18.963 41.719 18.963 72.059c0 22.756-3.793 41.719-11.378 56.889-7.585 7.585-18.963 22.756-30.341 34.133z" />
<glyph unicode="&#xe62a;" glyph-name="light-info" d="M485.452 697.837h45.511v-75.852h-45.511v75.852zM485.452 549.926h45.511v-383.052h-45.511v383.052zM512 910.222c-261.689 0-474.074-212.385-474.074-474.074s212.385-474.074 474.074-474.074 474.074 212.385 474.074 474.074-212.385 474.074-474.074 474.074zM512 0c-242.726 0-436.148 193.422-436.148 436.148s193.422 436.148 436.148 436.148 436.148-193.422 436.148-436.148-193.422-436.148-436.148-436.148z" />
<glyph unicode="&#xe62b;" glyph-name="light-clock" d="M512 879.881c-242.726 0-443.733-201.007-443.733-443.733s197.215-443.733 443.733-443.733 443.733 197.215 443.733 443.733-201.007 443.733-443.733 443.733zM530.963 30.341v75.852h-37.926v-75.852c-208.593 11.378-375.467 178.252-386.844 386.844h75.852v37.926h-75.852c11.378 208.593 178.252 375.467 386.844 386.844v-75.852h37.926v75.852c208.593-11.378 375.467-178.252 386.844-386.844h-75.852v-37.926h75.852c-11.378-208.593-178.252-375.467-386.844-386.844zM530.963 678.874h-37.926v-254.104l106.193-109.985 26.548 26.548-94.815 98.607z" />
<glyph unicode="&#xe62c;" glyph-name="light-link" d="M906.43 637.155l-193.422 193.422c-18.963 18.963-49.304 18.963-68.267 0l-132.741-132.741 26.548-26.548 132.741 132.741c3.793 3.793 7.585 3.793 11.378 0l193.422-193.422c3.793-3.793 3.793-3.793 3.793-7.585s0-3.793-3.793-7.585l-292.030-292.030c-3.793-3.793-7.585-3.793-11.378 0l-140.326 140.326-30.341-26.548 140.326-140.326c7.585-7.585 22.756-15.17 34.133-15.17s22.756 3.793 34.133 15.17l295.822 295.822c7.585 7.585 15.17 18.963 15.17 34.133-3.793 11.378-7.585 22.756-15.17 30.341zM348.919 68.267c-3.793-3.793-3.793-3.793-7.585-3.793 0 0-3.793 0-7.585 3.793l-193.422 193.422c-3.793 3.793-3.793 7.585 0 11.378l295.822 295.822c3.793 3.793 7.585 3.793 11.378 0l132.741-132.741 26.548 26.548-132.741 132.741c-18.963 18.963-49.304 18.963-68.267 0l-295.822-295.822c-18.963-18.963-18.963-49.304 0-68.267l193.422-193.422c7.585-7.585 18.963-15.17 34.133-15.17v0c11.378 0 22.756 3.793 34.133 15.17l132.741 132.741-26.548 26.548-128.948-128.948z" />
<glyph unicode="&#xe62d;" glyph-name="light-lock-close" d="M788.859 538.548h-41.719v117.57c0 128.948-106.193 235.141-235.141 235.141s-235.141-106.193-235.141-235.141v-117.57h-41.719c-30.341 0-56.889-26.548-56.889-56.889v-439.941c0-30.341 26.548-56.889 56.889-56.889h553.719c30.341 0 56.889 26.548 56.889 56.889v439.941c0 30.341-26.548 56.889-56.889 56.889zM314.785 656.118c0 106.193 87.23 197.215 197.215 197.215s197.215-87.23 197.215-197.215v-117.57h-394.43v117.57zM807.822 41.718c0-11.378-7.585-18.963-18.963-18.963h-553.719c-11.378 0-18.963 7.585-18.963 18.963v439.941c0 11.378 7.585 18.963 18.963 18.963h553.719c11.378 0 18.963-7.585 18.963-18.963v-439.941zM546.133 333.748c0 18.963-15.17 34.133-34.133 34.133s-34.133-15.17-34.133-34.133c0-11.378 7.585-18.963 15.17-26.548l-15.17-98.607h64.474l-11.378 98.607c7.585 7.585 15.17 15.17 15.17 26.548z" />
<glyph unicode="&#xe62e;" glyph-name="light-lock-open" d="M777.481 887.467c-128.948 0-235.141-106.193-235.141-235.141v-117.57h-470.281c-30.341 0-56.889-26.548-56.889-56.889v-439.941c0-30.341 26.548-56.889 56.889-56.889h553.719c30.341 0 56.889 26.548 56.889 56.889v443.733c0 30.341-26.548 56.889-56.889 56.889h-41.719v117.57c0 106.193 87.23 197.215 197.215 197.215s197.215-87.23 197.215-197.215v-136.533h37.926v136.533c-7.585 128.948-109.985 231.348-238.933 231.348zM640.948 481.659v-439.941c0-11.378-7.585-18.963-18.963-18.963h-549.926c-11.378 0-18.963 7.585-18.963 18.963v439.941c0 11.378 7.585 18.963 18.963 18.963h553.719c7.585 0 15.17-11.378 15.17-18.963zM326.163 307.2l-15.17-98.607h68.267l-15.17 98.607c7.585 7.585 15.17 15.17 15.17 26.548 0 18.963-15.17 34.133-34.133 34.133s-34.133-15.17-34.133-34.133c0-11.378 7.585-18.963 15.17-26.548z" />
<glyph unicode="&#xe62f;" glyph-name="light-computer" d="M883.674 879.881h-743.348c-53.096 0-94.815-41.719-94.815-94.815v-549.926c0-53.096 41.719-94.815 94.815-94.815h352.711v-109.985h-235.141v-37.926h508.207v37.926h-235.141v109.985h352.711c53.096 0 94.815 41.719 94.815 94.815v549.926c0 53.096-45.511 94.815-94.815 94.815zM140.326 841.955h739.556c30.341 0 56.889-26.548 56.889-56.889v-386.844h-853.333v386.844c0 30.341 26.548 56.889 56.889 56.889zM883.674 178.252h-743.348c-30.341 0-56.889 26.548-56.889 56.889v128.948h853.333v-128.948c3.793-30.341-22.756-56.889-53.096-56.889zM549.926 269.274c0-20.946-16.98-37.926-37.926-37.926s-37.926 16.98-37.926 37.926c0 20.946 16.98 37.926 37.926 37.926s37.926-16.98 37.926-37.926z" />
<glyph unicode="&#xe630;" glyph-name="light-laptop" d="M785.067 929.185h-546.133c-53.096 0-94.815-45.511-94.815-94.815v-796.444c0-53.096 41.719-94.815 94.815-94.815h549.926c53.096 0 94.815 41.719 94.815 94.815v796.444c-3.793 49.304-45.511 94.815-98.607 94.815zM238.933 891.259h549.926c30.341 0 56.889-26.548 56.889-56.889v-83.437h-663.704v83.437c0 30.341 22.756 56.889 56.889 56.889zM841.956 713.007v-512h-659.911v512h659.911zM785.067-18.963h-546.133c-30.341 0-56.889 26.548-56.889 56.889v128.948h663.704v-128.948c-3.793-30.341-26.548-56.889-60.681-56.889zM549.926 75.852c0-20.946-16.98-37.926-37.926-37.926s-37.926 16.98-37.926 37.926c0 20.946 16.98 37.926 37.926 37.926s37.926-16.98 37.926-37.926zM538.548 815.407c0-14.662-11.886-26.548-26.548-26.548s-26.548 11.886-26.548 26.548c0 14.662 11.886 26.548 26.548 26.548s26.548-11.886 26.548-26.548z" />
<glyph unicode="&#xe631;" glyph-name="light-mobile" d="M686.459 868.504h-348.919c-53.096 0-94.815-41.719-94.815-94.815v-675.081c0-53.096 41.719-94.815 94.815-94.815h352.711c53.096 0 94.815 41.719 94.815 94.815v675.081c-3.793 53.096-45.511 94.815-98.607 94.815zM337.541 830.578h352.711c30.341 0 56.889-26.548 56.889-56.889v-68.267h-466.489v68.267c0 30.341 22.756 56.889 56.889 56.889zM743.348 671.289v-428.563h-462.696v428.563h462.696zM686.459 41.718h-348.919c-30.341 0-56.889 26.548-56.889 56.889v109.985h466.489v-109.985c-3.793-30.341-26.548-56.889-60.681-56.889zM546.133 125.155c0-18.851-15.282-34.133-34.133-34.133s-34.133 15.282-34.133 34.133c0 18.851 15.282 34.133 34.133 34.133s34.133-15.282 34.133-34.133zM534.756 766.104c0-12.568-10.188-22.756-22.756-22.756s-22.756 10.188-22.756 22.756c0 12.568 10.188 22.756 22.756 22.756s22.756-10.188 22.756-22.756z" />
<glyph unicode="&#xe632;" glyph-name="light-phone" d="M872.296 231.348c-7.585 15.17-18.963 22.756-26.548 26.548-113.778 41.719-155.496 56.889-189.63 56.889-15.17 0-26.548-3.793-41.719-7.585-22.756-11.378-41.719-15.17-56.889-15.17s-30.341 3.793-56.889 30.341c-45.511 49.304-83.437 94.815-125.156 170.667-3.793 7.585-7.585 30.341-3.793 37.926 109.985 64.474 72.059 147.911 37.926 216.178-26.548 56.889-45.511 98.607-94.815 98.607-11.378 3.793-22.756 0-41.719-3.793-94.815-30.341-144.119-121.363-125.156-223.763 45.511-257.896 197.215-455.111 443.733-576.474 15.17-7.585 34.133-11.378 45.511-15.17 0 0 3.793 0 3.793 0v0h3.793c15.17-3.793 30.341-3.793 45.511-3.793 79.644 0 140.326 34.133 174.459 106.193 11.378 22.756 22.756 68.267 7.585 102.4zM830.578 147.911c-26.548-56.889-75.852-87.23-140.326-87.23-11.378 0-26.548 0-37.926 3.793 0 0-3.793 0-7.585 0-7.585 0-22.756 3.793-34.133 11.378-235.141 117.57-379.259 303.407-424.77 549.926-15.17 83.437 22.756 155.496 98.607 178.252 11.378 3.793 22.756 7.585 30.341 7.585 22.756 0 34.133-15.17 64.474-79.644 34.133-72.059 56.889-121.363-30.341-170.667-22.756-11.378-15.17-68.267-3.793-87.23 45.511-79.644 83.437-125.156 128.948-178.252 26.548-30.341 53.096-45.511 83.437-45.511 22.756 0 45.511 7.585 72.059 18.963 11.378 3.793 18.963 7.585 26.548 7.585 26.548 0 72.059-15.17 178.252-56.889 0 0 3.793-3.793 3.793-3.793 7.585-18.963 3.793-53.096-7.585-68.267z" />
<glyph unicode="&#xe633;" glyph-name="light-dialog" d="M68.267 136.533h246.519l117.57-155.496 121.363 155.496h250.311v629.57h-735.763v-629.57zM106.193 728.178h659.911v-553.719h-231.348l-102.4-132.741-98.607 132.741h-227.556v553.719zM219.97 891.259v-79.644h37.926v41.719h659.911v-553.719h-68.267v-37.926h106.193v629.57z" />
<glyph unicode="&#xe634;" glyph-name="light-single-dialog" d="M508.207 0l-128.948 174.459h-273.067v697.837h811.615v-694.044h-273.067l-136.533-178.252zM144.119 212.385h254.104l109.985-147.911 113.778 147.911h257.896v621.985h-735.763v-621.985z" />
<glyph unicode="&#xe635;" glyph-name="light-stylist" d="M519.585-49.304c-246.519 0-481.659 56.889-485.452 56.889l-15.17 3.793 3.793 18.963c3.793 30.341 41.719 79.644 87.23 102.4 22.756 11.378 56.889 22.756 91.022 37.926 41.719 15.17 83.437 34.133 98.607 41.719h3.793c37.926 18.963 60.681 30.341 64.474 64.474-34.133 3.793-113.778 11.378-182.044 37.926l-18.963 7.585 11.378 18.963c0 0 30.341 53.096 37.926 125.156 0 15.17 0 37.926 3.793 60.681 0 98.607 3.793 242.726 83.437 318.578 75.852 72.059 182.044 79.644 223.763 79.644 22.756 0 45.511-3.793 60.681-7.585 45.511-11.378 79.644-34.133 98.607-64.474 7.585-3.793 15.17-7.585 22.756-11.378 75.852-56.889 91.022-242.726 98.607-345.126 0-11.378 0-22.756 3.793-30.341 7.585-75.852 34.133-125.156 37.926-125.156l11.378-18.963-18.963-7.585c-64.474-26.548-144.119-34.133-182.044-37.926 3.793-34.133 26.548-49.304 60.681-64.474 18.963-7.585 56.889-22.756 98.607-37.926 37.926-15.17 79.644-30.341 102.4-41.719 45.511-18.963 83.437-72.059 87.23-102.4l3.793-15.17-15.17-3.793c-11.378-7.585-231.348-60.681-477.867-60.681zM64.474 37.926c60.681-15.17 257.896-49.304 455.111-49.304s379.259 37.926 439.941 49.304c-11.378 18.963-34.133 45.511-60.681 56.889-18.963 7.585-60.681 22.756-98.607 37.926-41.719 18.963-79.644 34.133-98.607 41.719-34.133 15.17-87.23 41.719-83.437 117.57v18.963h18.963c0 0 94.815 7.585 170.667 30.341-11.378 22.756-26.548 68.267-30.341 121.363 0 7.585 0 18.963-3.793 30.341-7.585 87.23-22.756 269.274-83.437 318.578-3.793 3.793-15.17 7.585-18.963 7.585l-7.585 3.793-3.793 7.585c-11.378 22.756-41.719 41.719-79.644 49.304-11.378 3.793-30.341 3.793-53.096 3.793-37.926 0-132.741-7.585-197.215-68.267-68.267-64.474-72.059-201.007-72.059-292.030 0-26.548 0-45.511-3.793-64.474-3.793-53.096-18.963-98.607-30.341-121.363 79.644-26.548 166.874-30.341 166.874-30.341h18.963v-18.963c3.793-72.059-45.511-94.815-87.23-113.778l-3.793-3.793c-18.963-7.585-56.889-26.548-102.4-41.719-34.133-15.17-68.267-26.548-91.022-37.926-26.548-7.585-49.304-34.133-60.681-53.096z" />
<glyph unicode="&#xe636;" glyph-name="light-customer" d="M519.585-53.096c-246.519 0-481.659 56.889-485.452 56.889l-15.17 3.793 3.793 18.963c3.793 30.341 41.719 79.644 87.23 102.4 22.756 11.378 56.889 22.756 91.022 37.926 41.719 15.17 83.437 34.133 98.607 41.719h3.793c37.926 18.963 64.474 34.133 64.474 72.059-22.756 22.756-94.815 98.607-117.57 174.459-22.756 91.022-26.548 299.615 75.852 398.222 64.474 60.681 136.533 72.059 189.63 72.059 30.341 0 53.096-3.793 68.267-7.585 45.511-11.378 79.644-34.133 98.607-64.474 7.585-3.793 15.17-7.585 22.756-11.378 98.607-75.852 113.778-322.37 49.304-436.148-34.133-56.889-83.437-106.193-102.4-125.156 0-41.719 26.548-56.889 64.474-75.852 18.963-7.585 56.889-22.756 98.607-37.926 37.926-15.17 79.644-30.341 102.4-41.719 45.511-18.963 83.437-72.059 87.23-102.4l3.793-15.17-15.17-3.793c-7.585 0-227.556-56.889-474.074-56.889zM64.474 37.926c60.681-15.17 257.896-49.304 455.111-49.304s379.259 37.926 439.941 49.304c-11.378 18.963-34.133 45.511-60.681 56.889-18.963 7.585-60.681 22.756-98.607 37.926-41.719 15.17-83.437 30.341-98.607 41.719-34.133 15.17-87.23 41.719-83.437 117.57v7.585l7.585 3.793c0 0 64.474 56.889 102.4 121.363 53.096 94.815 41.719 322.37-41.719 386.844-3.793 3.793-15.17 7.585-18.963 7.585l-7.585 3.793-3.793 7.585c-11.378 22.756-41.719 41.719-79.644 49.304-11.378 3.793-30.341 7.585-60.681 7.585-45.511 0-109.985-11.378-163.081-60.681-83.437-79.644-91.022-261.689-60.681-356.504 22.756-79.644 109.985-163.081 109.985-163.081l3.793-3.793v-7.585c3.793-72.059-45.511-94.815-87.23-113.778l-3.793-3.793c-18.963-7.585-56.889-26.548-102.4-41.719-34.133-15.17-68.267-26.548-91.022-37.926-22.756-18.963-45.511-41.719-56.889-60.681z" />
<glyph unicode="&#xe637;" glyph-name="light-like" d="M625.778 735.763c22.756 0 37.926-30.341 41.719-64.474 0-49.304-22.756-94.815-72.059-155.496 64.474 0 151.704-7.585 182.044-26.548 37.926-18.963 18.963-83.437-15.17-94.815 41.719-18.963 34.133-91.022-15.17-102.4 30.341-22.756 0-72.059-34.133-75.852 22.756-15.17 11.378-37.926 3.793-53.096-11.378-22.756-34.133-30.341-68.267-30.341-242.726 0-261.689 72.059-428.563 83.437 0 41.719 0 64.474 0 106.193 0 45.511 0 87.23 0 132.741 136.533 18.963 185.837 64.474 235.141 98.607 41.719 30.341 60.681 45.511 102.4 94.815 30.341 37.926 49.304 83.437 60.681 87.23 3.793 0 7.585 0 7.585 0zM625.778 773.689v0c-3.793 0-7.585 0-15.17 0-22.756-3.793-34.133-22.756-49.304-49.304-7.585-15.17-18.963-34.133-34.133-49.304-41.719-45.511-56.889-60.681-94.815-91.022l-11.378-7.585c-41.719-30.341-91.022-68.267-204.8-83.437l-34.133-3.793v-307.2l34.133-3.793c68.267-3.793 106.193-18.963 155.496-34.133 60.681-22.756 132.741-45.511 276.859-45.511 53.096 0 87.23 18.963 102.4 53.096v3.793c7.585 18.963 11.378 34.133 11.378 45.511 11.378 11.378 22.756 26.548 30.341 41.719 3.793 11.378 3.793 22.756 3.793 34.133 15.17 15.17 26.548 34.133 26.548 56.889 3.793 18.963 0 41.719-11.378 56.889 7.585 15.17 15.17 30.341 18.963 45.511 3.793 34.133-11.378 68.267-37.926 83.437-30.341 15.17-83.437 22.756-128.948 26.548 26.548 41.719 37.926 79.644 37.926 121.363 0 64.474-30.341 106.193-75.852 106.193v0z" />
<glyph unicode="&#xe638;" glyph-name="light-dislike" d="M371.674 735.763c242.726 0 261.689-72.059 428.563-83.437 0-41.719 0-64.474 0-106.193 0-45.511 0-87.23 0-132.741-136.533-18.963-185.837-64.474-235.141-98.607-41.719-30.341-60.681-45.511-102.4-94.815-30.341-37.926-49.304-83.437-60.681-87.23 0 0-3.793 0-3.793 0-22.756 0-37.926 30.341-41.719 64.474 0 49.304 22.756 94.815 72.059 155.496-64.474 0-151.704 7.585-182.044 26.548-37.926 18.963-18.963 83.437 15.17 94.815-41.719 22.756-37.926 94.815 11.378 102.4-30.341 22.756 0 72.059 34.133 75.852-22.756 15.17-11.378 37.926-3.793 53.096 11.378 22.756 34.133 30.341 68.267 30.341zM371.674 773.689c-53.096 0-87.23-18.963-102.4-53.096v-3.793c-11.378-18.963-11.378-34.133-11.378-45.511-15.17-11.378-26.548-26.548-30.341-45.511-3.793-11.378-3.793-22.756-3.793-34.133-15.17-15.17-26.548-34.133-26.548-56.889-3.793-18.963 0-41.719 11.378-56.889-7.585-15.17-15.17-30.341-18.963-45.511-3.793-34.133 11.378-68.267 37.926-83.437 30.341-15.17 83.437-22.756 128.948-26.548-26.548-41.719-37.926-79.644-37.926-121.363 0-56.889 34.133-102.4 79.644-102.4 3.793 0 7.585 0 15.17 0 22.756 3.793 34.133 22.756 49.304 49.304 7.585 15.17 18.963 34.133 34.133 49.304 41.719 45.511 56.889 60.681 94.815 91.022l11.378 7.585c41.719 30.341 91.022 68.267 204.8 83.437l34.133 3.793v307.2l-34.133 3.793c-68.267 3.793-106.193 18.963-155.496 34.133-68.267 22.756-136.533 45.511-280.652 45.511v0z" />
<glyph unicode="&#xe639;" glyph-name="light-hamburger-button" d="M121.363 724.385h777.481v-37.926h-777.481v37.926zM121.363 447.526h777.481v-37.926h-777.481v37.926zM121.363 185.837h777.481v-37.926h-777.481v37.926z" />
<glyph unicode="&#xe63a;" glyph-name="light-th-list" d="M333.748 724.385h568.889v-37.926h-568.889v37.926zM333.748 447.526h568.889v-37.926h-568.889v37.926zM333.748 185.837h568.889v-37.926h-568.889v37.926zM121.363 724.385h128.948v-37.926h-128.948v37.926zM121.363 447.526h128.948v-37.926h-128.948v37.926zM121.363 185.837h128.948v-37.926h-128.948v37.926z" />
<glyph unicode="&#xe63b;" glyph-name="light-th" d="M201.007 724.385h128.948v-37.926h-128.948v37.926zM201.007 447.526h128.948v-37.926h-128.948v37.926zM201.007 185.837h128.948v-37.926h-128.948v37.926zM451.319 724.385h128.948v-37.926h-128.948v37.926zM451.319 447.526h128.948v-37.926h-128.948v37.926zM451.319 185.837h128.948v-37.926h-128.948v37.926zM694.044 724.385h128.948v-37.926h-128.948v37.926zM694.044 447.526h128.948v-37.926h-128.948v37.926zM694.044 185.837h128.948v-37.926h-128.948v37.926z" />
<glyph unicode="&#xe63c;" glyph-name="light-trash" d="M948.148 690.252h-242.726v151.704c0 22.756-18.963 37.926-41.719 37.926h-303.407c-22.756 0-41.719-18.963-41.719-37.926v-151.704h-242.726v-37.926h113.778l60.681-610.607c0-30.341 22.756-53.096 53.096-53.096h417.185c30.341 0 53.096 22.756 53.096 49.304l60.681 614.4h113.778v37.926zM360.296 845.748h307.2c3.793 0 3.793 0 3.793 0v0-151.704h-314.785v151.704c0-3.793 0 0 3.793 0zM735.763 41.718c0-7.585-7.585-15.17-15.17-15.17h-417.185c-7.585 0-15.17 7.585-15.17 15.17l-60.681 610.607h568.889l-60.681-610.607zM367.881 595.437h37.926v-439.941h-37.926v439.941zM493.037 595.437h37.926v-439.941h-37.926v439.941zM621.985 595.437h37.926v-439.941h-37.926v439.941z" />
<glyph unicode="&#xe63d;" glyph-name="light-trash-semiopen" horiz-adv-x="869" d="M247.95 15.999c0-25.761 19.321-45.082 45.082-45.082h354.214c25.761 0 45.082 19.321 45.082 41.862l57.962 576.403h-560.302l57.962-573.182zM660.126 15.999c0-6.44-6.44-12.881-12.881-12.881h-354.214c-6.44 0-12.881 6.44-12.881 12.881l-54.742 540.981h489.459l-54.742-540.981zM795.371 808.15l-202.868-38.642-22.541 125.585c-3.22 16.101-16.101 25.761-35.421 25.761-3.22 0-3.22 0-6.44 0l-254.39-41.862c-19.321-3.22-32.201-22.541-28.981-38.642l22.541-125.585-199.648-38.642 6.44-32.201 730.969 135.245-9.66 28.981zM280.151 846.792l254.39 48.302c0 0 0 0 0 0s3.22 0 3.22 0c0 0 0 0 0 0l25.761-128.805-264.050-48.302-22.541 125.585c0 0 0 3.22 3.22 3.22zM347.774 486.138h28.981v-373.535h-28.981v373.535zM457.258 486.138h28.981v-373.535h-28.981v373.535zM563.522 486.138h28.981v-373.535h-28.981v373.535z" />
<glyph unicode="&#xe63e;" glyph-name="light-trash-open" horiz-adv-x="695" d="M187.819 504.217l46.312-457.97c0-20.583 15.437-36.020 36.020-36.020h283.015c20.583 0 36.020 15.437 36.020 33.447l46.312 460.543h-447.678zM563.457 46.247c0-5.146-5.146-10.291-10.291-10.291h-283.015c-5.146 0-10.291 5.146-10.291 10.291l-43.739 432.241h391.075l-43.739-432.241zM491.417 913.302l-118.352-113.206-69.467 74.613c-5.146 5.146-12.864 7.719-18.010 7.719-7.719 0-15.437-2.573-20.583-7.719l-151.799-141.508c-10.291-10.291-12.864-28.302-2.573-38.593l69.467-74.613-118.352-113.206 15.437-18.010 432.241 406.513-18.010 18.010zM128.643 715.192l151.799 141.508c0 0 2.573 0 2.573 0v0l69.467-74.613-154.372-146.653-69.467 74.613c0 2.573 0 2.573 0 5.146zM313.889 419.312h23.156v-298.452h-23.156v298.452zM401.367 419.312h23.156v-298.452h-23.156v298.452zM486.271 419.312h23.156v-298.452h-23.156v298.452zM424.523 661.161l69.467-69.467 18.010 20.583-100.342 97.769-100.342-97.769 18.010-20.583 69.467 69.467v-110.633h25.729z" />
<glyph unicode="&#xe63f;" glyph-name="light-trash-out" horiz-adv-x="813" d="M231.906 48.189c0-24.094 18.071-42.165 42.165-42.165h331.294c24.094 0 42.165 18.071 42.165 39.153l54.212 539.106h-524.047l54.212-536.094zM617.412 48.189c0-6.024-6.024-12.047-12.047-12.047h-331.294c-6.024 0-12.047 6.024-12.047 12.047l-51.2 505.976h457.788l-51.2-505.976zM743.906 789.083l-189.741-36.141-21.082 120.471c-3.012 15.059-15.059 24.094-33.129 24.094-3.012 0-3.012 0-6.024 0l-237.929-45.176c-18.071-3.012-30.118-21.082-27.106-36.141l21.082-117.459-186.729-36.141 6.024-30.118 683.671 126.494-9.035 30.118zM262.024 822.212l237.929 45.176c0 0 0 0 0 0s3.012 0 3.012 0c0 0 0 0 0 0l21.082-117.459-243.953-45.176-21.082 117.459c0 0 0 0 3.012 0zM427.671 394.541v-262.024h27.106v262.024l84.329-84.329 18.071 18.071-114.447 117.459-117.459-117.459 18.071-18.071z" />
<glyph unicode="&#xe640;" glyph-name="light-trash-in" d="M948.148 705.422h-242.726v151.704c0 22.756-18.963 37.926-41.719 37.926h-303.407c-22.756 0-41.719-18.963-41.719-37.926v-151.704h-242.726v-37.926h109.985l68.267-640.948c0-30.341 22.756-53.096 53.096-53.096h417.185c30.341 0 53.096 22.756 53.096 49.304l64.474 640.948h106.193v41.719zM360.296 857.126h307.2c3.793 0 3.793 0 3.793 0s0 0 0 0v-147.911h-314.785v147.911c0 0 0 0 3.793 0zM735.763 26.548c0-7.585-7.585-15.17-15.17-15.17h-417.185c-7.585 0-15.17 7.585-15.17 15.17l-64.474 640.948h580.267l-68.267-640.948zM659.911 299.615l-26.548 22.756-102.4-106.193v326.163h-34.133v-326.163l-106.193 106.193-22.756-22.756 144.119-147.911z" />
<glyph unicode="&#xe641;" glyph-name="light-card" horiz-adv-x="1289" d="M212.385 375.467h87.23v-75.852h-87.23v75.852zM219.97 140.326h83.437v-75.852h-83.437v75.852zM371.674 140.326h83.437v-75.852h-83.437v75.852zM519.585 140.326h83.437v-75.852h-83.437v75.852zM671.289 140.326h83.437v-75.852h-83.437v75.852zM1175.704 720.592l-686.459 208.593c-30.341 7.585-60.681-7.585-72.059-37.926l-113.778-379.259h-174.459c-30.341 0-56.889-26.548-56.889-56.889v-458.904c0-30.341 26.548-56.889 56.889-56.889h713.007c30.341 0 56.889 26.548 56.889 56.889v208.593l109.985-34.133c3.793 0 11.378-3.793 15.17-3.793 26.548 0 45.511 15.17 53.096 41.719l136.533 439.941c11.378 30.341-7.585 60.681-37.926 72.059zM860.919-3.793c0-11.378-7.585-18.963-18.963-18.963h-713.007c-11.378 0-18.963 7.585-18.963 18.963v458.904c0 11.378 7.585 18.963 18.963 18.963h713.007c11.378 0 18.963-7.585 18.963-18.963v-458.904zM1046.756 223.763c-3.793-11.378-15.17-15.17-22.756-11.378l-121.363 37.926v204.8c0 30.341-26.548 56.889-56.889 56.889h-504.415l56.889 185.837 724.385-219.97-75.852-254.104zM1179.496 659.911l-22.756-75.852-724.385 219.97 22.756 75.852c3.793 7.585 11.378 15.17 18.963 15.17 0 0 3.793 0 3.793 0l686.459-212.385c11.378-3.793 18.963-15.17 15.17-22.756z" />
<glyph unicode="&#xe642;" glyph-name="light-cart" d="M955.733 906.429c-53.096 0-94.815-34.133-113.778-98.607 0-3.793-3.793-18.963-11.378-34.133h-785.067l7.585-22.756c3.793-11.378 83.437-318.578 94.815-356.504 18.963-64.474 60.681-98.607 113.778-98.607h443.733c-11.378-49.304-22.756-87.23-26.548-94.815-11.378-34.133-30.341-72.059-79.644-72.059h-390.637v-37.926h45.511c-11.378-11.378-15.17-26.548-15.17-45.511 0-41.719 34.133-72.059 72.059-72.059s72.059 34.133 72.059 72.059c0 18.963-7.585 34.133-15.17 45.511h136.533c-11.378-11.378-15.17-26.548-15.17-45.511 0-41.719 34.133-72.059 72.059-72.059s72.059 34.133 72.059 72.059c0 18.963-7.585 34.133-18.963 45.511 45.511 7.585 79.644 41.719 98.607 98.607 3.793 11.378 15.17 49.304 30.341 106.193v0 3.793c15.17 56.889 34.133 125.156 53.096 197.215 37.926 140.326 75.852 284.444 79.644 303.407 11.378 34.133 34.133 72.059 79.644 72.059h22.756v37.926l-22.756-3.793zM310.993 3.792c-18.963 0-34.133 15.17-34.133 34.133s15.17 37.926 34.133 37.926 34.133-15.17 34.133-34.133-15.17-37.926-34.133-37.926zM561.304 3.792c-18.963 0-34.133 15.17-34.133 34.133s15.17 34.133 34.133 34.133 34.133-15.17 34.133-34.133-11.378-34.133-34.133-34.133zM762.311 504.415c-15.17-60.681-30.341-121.363-45.511-174.459h-455.111c-45.511 0-68.267 37.926-79.644 72.059-7.585 30.341-68.267 257.896-87.23 329.956h728.178c-15.17-56.889-37.926-140.326-60.681-227.556z" />
<glyph unicode="&#xe643;" glyph-name="light-outfittery-box" horiz-adv-x="1183" d="M781.274 716.8v0l-30.341-3.793v121.363c0 22.756-18.963 41.719-37.926 41.719 0 0-3.793 0-3.793 0l-307.2-37.926c-22.756 0-41.719-22.756-41.719-45.511v-109.985l-303.407-26.548v-557.511l720.593-60.681 352.711 60.681v557.511l-348.919 60.681zM94.815 261.689v227.556c64.474 15.17 113.778 72.059 121.363 140.326l390.637 34.133c0-83.437 68.267-151.704 151.704-155.496v-288.237c-75.852 0-140.326-56.889-155.496-128.948l-371.674 34.133c-7.585 68.267-64.474 125.156-136.533 136.533zM792.652 212.385v295.822c68.267 15.17 121.363 72.059 128.948 144.119l60.681-7.585c3.793-64.474 49.304-117.57 109.985-128.948v-257.896c-68.267-15.17-117.57-75.852-121.363-147.911l-45.511-7.585c-18.963 56.889-68.267 102.4-132.741 109.985zM398.222 792.652c0 7.585 3.793 11.378 7.585 11.378l307.2 37.926c0 0 0-3.793 0-3.793v-125.156l-314.785-30.341v109.985z" />
<glyph unicode="&#xe644;" glyph-name="light-cloth-offer" horiz-adv-x="946" d="M664.048 214.109l6.206 586.473c0 9.309-3.103 24.824-24.824 31.030l-111.709 31.030-6.206 6.206c-15.515 18.618-24.824 24.824-34.133 31.030h-6.206c-3.103 0-40.339 18.618-124.121 18.618-40.339 0-99.297-9.309-127.224-21.721l-9.309-3.103c-3.103 0-18.618-9.309-31.030-31.030l-114.812-31.030c-9.309-3.103-31.030-9.309-37.236-37.236v-580.267c0-15.515 15.515-27.927 31.030-27.927h558.545c15.515 0 27.927 12.412 31.030 27.927zM242.036 865.745l6.206 3.103c21.721 9.309 71.37 18.618 114.812 18.618 77.576 0 111.709-15.515 111.709-15.515l3.103-3.103c6.206-3.103 12.412-6.206 21.721-21.721l3.103-3.103c-18.618-127.224-121.018-179.976-142.739-189.285-21.721 12.412-121.018 58.958-142.739 186.182l3.103 3.103c9.309 15.515 18.618 21.721 21.721 21.721zM74.473 788.169c3.103 9.309 9.309 12.412 15.515 12.412l102.4 27.927c27.927-139.636 136.533-189.285 161.358-198.594l6.206-3.103 9.309 3.103c24.824 9.309 133.43 62.061 161.358 201.697l102.4-31.030c3.103 0 3.103 0 3.103 0l-3.103-583.37c0 0 0 0 0 0l-558.545-3.103v574.061zM781.964 111.709l6.206 586.473c0 9.309-3.103 24.824-24.824 31.030l-58.958 18.618v-31.030l52.752-15.515c3.103 0 3.103 0 3.103 0l-3.103-583.37-558.545-3.103v37.236h-31.030v-37.236c0-15.515 15.515-27.927 31.030-27.927h558.545c12.412-3.103 24.824 9.309 24.824 24.824zM878.158 626.812l-55.855 15.515v-31.030l46.545-15.515c3.103 0 3.103 0 3.103 0l-3.103-583.37-558.545-3.103v37.236h-31.030v-40.339c0-15.515 15.515-27.927 31.030-27.927h558.545c15.515 0 31.030 12.412 31.030 27.927l6.206 586.473c-3.103 12.412-6.206 27.927-27.927 34.133z" />
<glyph unicode="&#xe645;" glyph-name="light-cloth-download" horiz-adv-x="833" d="M700.145 835.948l-111.036 30.843-3.084 6.169c-15.422 18.506-24.675 24.675-33.928 30.843l-6.169 3.084c-3.084 0-40.096 18.506-123.373 18.506-40.096 0-98.699-9.253-126.458-21.59l-6.169-6.169c-3.084 0-18.506-9.253-30.843-30.843l-114.12-30.843c-9.253-3.084-30.843-9.253-37.012-37.012v-576.771c0-15.422 15.422-27.759 30.843-27.759h175.807v27.759h-175.807v570.602c0 9.253 6.169 12.337 15.422 12.337l98.699 27.759c27.759-138.795 141.88-191.229 160.386-200.482l6.169-3.084h6.169l6.169 3.084c18.506 9.253 135.711 61.687 160.386 200.482l101.783-30.843c3.084 0 3.084 0 3.084 0l-3.084-579.855c0 0 0 0 0 0h-172.723v-30.843h172.723c15.422 0 30.843 12.337 30.843 27.759l6.169 582.94c-3.084 12.337-6.169 27.759-30.843 33.928zM422.554 663.225c-24.675 9.253-120.289 58.602-138.795 181.976v0c6.169 18.506 18.506 24.675 18.506 24.675l6.169 3.084c21.59 9.253 70.94 18.506 114.12 18.506 74.024 0 111.036-15.422 111.036-15.422l6.169-3.084c3.084-3.084 12.337-6.169 21.59-21.59v0c-18.506-126.458-117.205-175.807-138.795-188.145zM431.807 34.020v431.807h-30.843v-428.723l-83.277 83.277-21.59-21.59 120.289-120.289 120.289 120.289-21.59 21.59-83.277-86.361z" />
<glyph unicode="&#xe646;" glyph-name="light-cloth-upload" horiz-adv-x="843" d="M708.683 828.162l-112.39 31.22-3.122 3.122c-15.61 18.732-24.976 24.976-34.341 31.22l-6.244 3.122c-3.122 0-40.585 18.732-124.878 18.732-40.585 0-99.902-9.366-128-21.854l-6.244-3.122c-3.122 0-18.732-9.366-31.22-31.22l-115.512-31.22c-9.366-3.122-31.22-9.366-37.463-37.463v-583.805c0-15.61 15.61-28.098 31.22-28.098h177.951v28.098h-177.951v577.561c0 6.244 6.244 9.366 15.61 12.488l99.902 28.098c28.098-140.488 140.488-193.561 162.341-199.805l3.122-3.122h9.366l3.122 3.122c21.854 9.366 134.244 62.439 162.341 202.927l103.024-31.22c3.122 0 3.122 0 3.122 0l-3.122-586.927c0 0 0 0 0 0h-174.829v-31.22h174.829c15.61 0 31.22 12.488 31.22 28.098l6.244 590.049c0 6.244-3.122 21.854-28.098 31.22zM427.707 653.333c-24.976 9.366-121.756 59.317-143.61 184.195v0c9.366 15.61 21.854 21.854 21.854 21.854l6.244 6.244c21.854 9.366 71.805 18.732 115.512 18.732 78.049 0 112.39-15.61 112.39-15.61l6.244-3.122c3.122-3.122 12.488-6.244 21.854-21.854v0c-18.732-131.122-118.634-181.073-140.488-190.439zM543.22 359.869l-121.756 121.756-121.756-121.756 21.854-21.854 84.293 84.293v-433.951h31.22v433.951l84.293-84.293z" />
<glyph unicode="&#xe647;" glyph-name="light-loading" d="M383.052 697.837l-87.23 147.911-34.133-18.963 87.23-147.911c11.378 7.585 22.756 11.378 34.133 18.963zM512 728.178c7.585 0 11.378 0 18.963 0v170.667h-37.926v-170.667c7.585 0 11.378 0 18.963 0zM219.97 436.148c0 7.585 0 15.17 0 18.963h-170.667v-37.926h170.667c0 7.585 0 11.378 0 18.963zM273.067 603.022l-147.911 87.23-18.963-34.133 144.119-87.23c7.585 11.378 15.17 22.756 22.756 34.133zM675.081 678.874l87.23 147.911-34.133 18.963-83.437-147.911c11.378-7.585 18.963-11.378 30.341-18.963zM773.689 568.889l147.911 87.23-18.963 34.133-147.911-87.23c3.793-11.378 11.378-22.756 18.963-34.133zM750.933 273.067l147.911-87.23 18.963 34.133-144.119 83.437c-7.585-11.378-15.17-22.756-22.756-30.341zM640.948 174.459l87.23-147.911 34.133 18.963-87.23 147.911c-11.378-7.585-22.756-11.378-34.133-18.963zM250.311 307.2l-147.911-87.23 18.963-30.341 147.911 87.23c-7.585 7.585-11.378 18.963-18.963 30.341zM804.030 455.111c0-7.585 0-15.17 0-18.963 0-7.585 0-11.378 0-18.963h170.667v37.926h-170.667zM512 144.118c-7.585 0-11.378 0-18.963 0v-170.667h37.926v170.667c-7.585 0-11.378 0-18.963 0zM345.126 197.215l-87.23-147.911 34.133-18.963 87.23 147.911c-11.378 3.793-22.756 11.378-34.133 18.963z" />
<glyph unicode="&#xe648;" glyph-name="light-compass" d="M512 876.089c-242.726 0-439.941-197.215-439.941-439.941s197.215-439.941 439.941-439.941 439.941 197.215 439.941 439.941-197.215 439.941-439.941 439.941zM530.963 34.133v75.852h-37.926v-75.852c-208.593 7.585-375.467 174.459-383.052 383.052h75.852v37.926h-75.852c7.585 208.593 174.459 375.467 383.052 383.052v-75.852h37.926v75.852c208.593-11.378 375.467-178.252 383.052-383.052h-75.852v-37.926h75.852c-7.585-208.593-174.459-375.467-383.052-383.052zM292.030 219.97l307.2 125.156 125.156 307.2-307.2-125.156-125.156-307.2zM580.267 390.637l-113.778 113.778 193.422 75.852-79.644-189.63z" />
<glyph unicode="&#xe649;" glyph-name="light-sign" d="M773.689 254.104l117.57 174.459h-360.296v98.607h231.348l117.57 174.459-117.57 170.667h-231.348v75.852h-37.926v-75.852h-360.296l117.57-174.459-117.57-174.459h360.296v-98.607h-231.348l-117.57-174.459 117.57-174.459h231.348v-151.704h37.926v151.704h360.296l-117.57 178.252zM295.822 697.837l-91.022 136.533h538.548l91.022-136.533-91.022-136.533h-538.548l91.022 136.533zM189.63 254.104l91.022 136.533h538.548l-91.022-136.533 91.022-136.533h-538.548l-91.022 136.533z" />
<glyph unicode="&#xe64a;" glyph-name="light-click-screen" horiz-adv-x="818" d="M415.053 218.041c0-16.732-13.564-30.296-30.296-30.296s-30.296 13.564-30.296 30.296c0 16.732 13.564 30.296 30.296 30.296s30.296-13.564 30.296-30.296zM405.964 811.84c0-11.712-9.495-21.207-21.207-21.207s-21.207 9.495-21.207 21.207c0 11.712 9.495 21.207 21.207 21.207s21.207-9.495 21.207-21.207zM727.101 248.337c-3.030 27.266-24.237 51.503-51.503 60.592v515.030c0 42.414-33.325 75.74-75.74 75.74h-436.26c-42.414 0-75.74-33.325-75.74-75.74v-633.183c0-42.414 33.325-75.74 75.74-75.74h284.781c6.059-21.207 15.148-45.444 24.237-87.858l6.059-24.237h193.893l3.030 27.266c3.030 18.178 6.059 24.237 15.148 39.385 6.059 12.118 15.148 24.237 21.207 42.414 21.207 45.444 18.178 112.095 15.148 136.331zM118.154 823.958c0 24.237 21.207 45.444 45.444 45.444h439.29c24.237 0 45.444-21.207 45.444-45.444v-66.651h-530.178v66.651zM118.154 727.011h530.178v-399.905c-9.089 6.059-21.207 9.089-33.325 9.089-12.118 12.118-27.266 18.178-45.444 18.178-3.030 42.414-3.030 84.828-6.059 115.124s-24.237 51.503-51.503 51.503v0c-30.296 0-51.503-21.207-54.533-51.503-3.030-39.385-6.059-106.036-6.059-148.45h-333.254v405.964zM118.154 190.775v99.976h324.166c-12.118-27.266-24.237-63.621-18.178-90.888 3.030-24.237 9.089-39.385 15.148-57.562h-275.692c-24.237 3.030-45.444 24.237-45.444 48.473zM684.686 124.124c-15.148-39.385-36.355-48.473-39.385-90.888-21.207 0-45.444 0-69.68 0s-48.473 0-72.71 0c-12.118 48.473-18.178 75.74-27.266 96.947 0 0 0 0 0 0 0 3.030-3.030 6.059-3.030 9.089s0 3.030-3.030 6.059v0c-6.059 18.178-12.118 36.355-18.178 60.592-3.030 21.207 9.089 60.592 21.207 84.828v0c3.030 3.030 3.030 6.059 6.059 9.089 0 6.059 0 15.148 0 21.207v0c3.030 51.503 3.030 112.095 6.059 145.42 0 15.148 12.118 21.207 24.237 21.207v0c12.118 0 21.207-6.059 21.207-21.207 3.030-36.355 6.059-96.947 6.059-145.42 3.030 3.030 9.089 3.030 15.148 3.030s15.148 0 21.207-3.030v0c3.030 0 6.059-3.030 6.059-3.030s0 0 3.030 0 3.030-3.030 3.030-3.030c0 0 0 0 3.030 0 0 0 3.030-3.030 3.030-3.030s0 0 0-3.030 0-3.030 0-6.059c3.030 3.030 6.059 3.030 12.118 3.030 3.030 0 6.059 0 9.089 0 0 0 0 0 3.030 0 6.059 0 12.118-3.030 15.148-6.059 0 0 0 0 0 0 3.030-3.030 6.059-3.030 6.059-6.059v0c3.030-3.030 3.030-6.059 3.030-12.118 0 0 0 0 0 0v0c0 0 3.030 0 3.030 0s3.030 0 3.030 0c0 0 0 0 0 0 3.030 0 6.059 0 9.089 0 0 0 0 0 3.030 0s6.059-3.030 9.089-3.030c12.118-6.059 18.178-18.178 21.207-30.296 12.118-33.325 12.118-87.858-3.030-124.213z" />
<glyph unicode="&#xe64b;" glyph-name="light-survey-laptop" d="M785.067 929.185h-546.133c-53.096 0-94.815-45.511-94.815-94.815v-796.444c0-53.096 41.719-94.815 94.815-94.815h549.926c53.096 0 94.815 41.719 94.815 94.815v796.444c-3.793 49.304-45.511 94.815-98.607 94.815zM238.933 891.259h549.926c30.341 0 56.889-26.548 56.889-56.889v-83.437h-663.704v83.437c0 30.341 22.756 56.889 56.889 56.889zM841.956 713.007v-512h-659.911v512h659.911zM785.067-18.963h-546.133c-30.341 0-56.889 26.548-56.889 56.889v128.948h663.704v-128.948c-3.793-30.341-26.548-56.889-60.681-56.889zM549.926 75.852c0-20.946-16.98-37.926-37.926-37.926s-37.926 16.98-37.926 37.926c0 20.946 16.98 37.926 37.926 37.926s37.926-16.98 37.926-37.926zM538.548 815.407c0-14.662-11.886-26.548-26.548-26.548s-26.548 11.886-26.548 26.548c0 14.662 11.886 26.548 26.548 26.548s26.548-11.886 26.548-26.548zM348.919 352.711l-30.341 34.133-26.548-26.548 56.889-56.889 87.23 91.022-22.756 26.548zM322.37 500.622l34.133 34.133 34.133-34.133 26.548 26.548-34.133 30.341 34.133 30.341-22.756 22.756-34.133-30.341-34.133 30.341-26.548-22.756 34.133-30.341-34.133-30.341zM477.867 572.681h265.481v-34.133h-265.481v34.133zM477.867 379.259h265.481v-34.133h-265.481v34.133z" />
<glyph unicode="&#xe64c;" glyph-name="light-survey" horiz-adv-x="1034" d="M521.846 715.592l-22.974 22.974-128-134.564-65.641 72.205-22.974-22.974 88.615-95.179zM984.615 689.336h-85.333v-32.821h52.513v-446.359h-505.436c0 9.846 0 16.41 0 22.974 0 19.692-13.128 39.385-29.538 52.513h446.359v512h-88.615v-32.821h55.795v-446.359h-479.179c-6.564 3.282-13.128 3.282-19.692 3.282-9.846 9.846-26.256 16.41-42.667 19.692 0 16.41 0 32.821-3.282 49.231h446.359v512h-682.667v-512h118.154c0-36.103-3.282-72.205-3.282-95.179-13.128-26.256-32.821-72.205-26.256-108.308 6.564-32.821 13.128-49.231 19.692-72.205s16.41-49.231 29.538-101.744l6.564-26.256h196.923l3.282 29.538c3.282 16.41 6.564 22.974 16.41 39.385 6.564 9.846 16.41 22.974 22.974 42.667 9.846 22.974 13.128 52.513 16.41 78.769h534.974v512zM82.051 423.49v446.359h617.026v-446.359h-413.538c0 9.846 0 22.974 0 29.538 0 29.538-26.256 52.513-55.795 52.513s-55.795-22.974-55.795-52.513c0-9.846 0-19.692 0-29.538h-91.897zM400.41 108.413c-16.41-39.385-36.103-49.231-39.385-88.615-22.974 0-45.949 0-68.923 0s-49.231 0-72.205 0c-22.974 101.744-36.103 111.59-49.231 170.667-3.282 26.256 13.128 68.923 26.256 91.897v0c0 0 0 0 0 0 0 9.846 0 19.692 0 29.538 0 3.282 0 6.564 0 6.564 0 6.564 0 16.41 0 22.974 0 16.41 0 29.538 3.282 45.949 0 9.846 0 19.692 0 29.538s0 22.974 0 29.538c0 13.128 13.128 22.974 22.974 22.974 0 0 0 0 0 0 9.846 0 22.974-6.564 22.974-22.974 0-9.846 0-19.692 0-29.538v0c0-9.846 0-19.692 0-26.256 0-26.256 3.282-52.513 3.282-78.769v0c0-3.282 0-6.564 0-9.846 3.282 0 9.846 3.282 13.128 3.282 16.41 0 42.667-6.564 42.667-22.974 3.282 3.282 6.564 3.282 9.846 3.282s6.564 0 9.846 0c0 0 0 0 0 0 3.282 0 6.564-3.282 9.846-3.282 9.846-3.282 16.41-9.846 16.41-19.692 3.282 0 6.564 0 6.564 0 19.692 0 42.667-16.41 42.667-36.103 0-6.564 0-13.128 0-22.974s0-19.692 0-32.821c9.846-16.41 6.564-42.667 0-62.359z" />
<glyph unicode="&#xe64d;" glyph-name="light-gift" d="M967.111 640.948c0 30.341-26.548 56.889-56.889 56.889h-170.667c34.133 22.756 53.096 56.889 53.096 98.607 0 60.681-49.304 109.985-113.778 113.778-72.059 0-128.948-56.889-166.874-151.704-37.926 94.815-98.607 151.704-170.667 151.704 0 0 0 0 0 0-64.474 0-113.778-49.304-113.778-113.778 0-41.719 22.756-75.852 53.096-94.815h-166.874c-30.341 0-56.889-26.548-56.889-56.889v-197.215h37.926v-424.77c0-30.341 26.548-56.889 56.889-56.889h720.593c30.341 0 56.889 26.548 56.889 56.889v420.978h37.926v197.215zM929.185 640.948v-159.289h-402.015v178.252h383.052c11.378 0 18.963-7.585 18.963-18.963zM678.874 868.504v0c41.719 0 75.852-34.133 75.852-75.852s-34.133-75.852-75.852-75.852h-144.119c34.133 98.607 83.437 151.704 144.119 151.704zM341.333 868.504c60.681 0 109.985-56.889 140.326-151.704h-140.326c-41.719 3.793-75.852 37.926-75.852 79.644s34.133 72.059 75.852 72.059zM94.815 640.948c0 11.378 7.585 18.963 18.963 18.963h375.467v-178.252h-394.43v159.289zM132.741 22.755v420.978h356.504v-443.733h-337.541c-11.378 3.793-18.963 11.378-18.963 22.756zM891.259 22.755c0-11.378-7.585-18.963-18.963-18.963h-345.126v439.941h364.089v-420.978z" />
<glyph unicode="&#xe64e;" glyph-name="light-eye" d="M1005.037 447.526c-7.585 11.378-235.141 288.237-493.037 288.237s-481.659-276.859-489.244-288.237l-7.585-11.378 7.585-11.378c7.585-11.378 185.837-288.237 493.037-288.237 303.407 0 485.452 276.859 493.037 288.237l7.585 11.378-11.378 11.378zM512 174.459c-250.311 0-413.393 208.593-451.319 257.896 45.511 49.304 242.726 261.689 451.319 261.689s409.6-212.385 455.111-261.689c-41.719-49.304-204.8-257.896-455.111-257.896zM508.207 606.815c-94.815 0-170.667-75.852-170.667-170.667s75.852-170.667 170.667-170.667 170.667 75.852 170.667 170.667-75.852 170.667-170.667 170.667zM508.207 299.615c-75.852 0-136.533 60.681-136.533 136.533s60.681 136.533 136.533 136.533 136.533-60.681 136.533-136.533-60.681-136.533-136.533-136.533z" />
<glyph unicode="&#xe64f;" glyph-name="light-mail" d="M56.889 747.141v-618.193h910.222v618.193h-910.222zM534.756 337.541c-11.378-11.378-30.341-11.378-41.719 0l-371.674 371.674h781.274l-367.881-371.674zM341.333 436.148l-246.519-246.519v493.037l246.519-246.519zM367.881 409.6l98.607-98.607c11.378-11.378 30.341-18.963 49.304-18.963s34.133 7.585 49.304 18.963l98.607 98.607 242.726-242.726h-781.274l242.726 242.726zM686.459 436.148l242.726 242.726v-489.244l-242.726 246.519z" />
<glyph unicode="&#xe650;" glyph-name="light-doc" d="M690.252 891.259h-549.926v-914.015h747.141v720.593l-197.215 193.422zM678.874 849.541l163.081-159.289h-163.081v159.289zM178.252 18.963v834.37h466.489v-204.8h204.8v-633.363h-671.289z" />
<glyph unicode="&#xe651;" glyph-name="light-doc-two" d="M739.556 883.674h-466.489v-79.644h37.926v41.719h383.052v-170.667h170.667v-523.378h-64.474v-37.926h102.4v606.815l-163.081 163.081zM731.97 838.163l125.156-125.156h-125.156v125.156zM121.363 758.518v-769.896h629.57v606.815l-163.081 163.081h-466.489zM580.267 713.007l125.156-125.156h-125.156v125.156zM159.289 26.548v694.044h383.052v-170.667h170.667v-523.378h-553.719z" />
<glyph unicode="&#xe652;" glyph-name="light-doc-download" horiz-adv-x="838" d="M558.545 912.291h-428.218v-707.491h189.285v31.030h-158.255v645.43h359.952v-158.255h158.255v-490.279h-152.048v-31.030h183.079v558.545l-152.048 152.048zM549.236 878.157l121.018-121.018h-121.018v121.018zM437.527 46.545v431.321h-31.030v-431.321l-83.782 80.679-21.721-21.721 121.018-117.915 117.915 117.915-21.721 21.721z" />
<glyph unicode="&#xe653;" glyph-name="light-download" d="M731.97 356.504l-26.548 26.548-174.459-174.459v614.4h-37.926v-614.4l-174.459 174.459-26.548-26.548 219.97-219.97zM37.926 87.229h948.148v-37.926h-948.148v37.926z" />
<glyph unicode="&#xe654;" glyph-name="light-questionaire" d="M140.326 106.192l-60.681 64.474-26.548-26.548 87.23-94.815 144.119 151.704-26.548 26.548zM140.326 701.629l-60.681 64.474-26.548-26.548 87.23-94.815 144.119 151.704-26.548 26.548zM94.815 341.333l68.267 60.681 64.474-60.681 26.548 26.548-64.474 60.681 64.474 60.681-26.548 26.548-64.474-60.681-64.474 60.681-26.548-26.548 60.681-60.681-60.681-60.681zM417.185 724.385h553.719v-37.926h-553.719v37.926zM417.185 436.148h553.719v-37.926h-553.719v37.926zM417.185 155.496h553.719v-37.926h-553.719v37.926z" />
<glyph unicode="&#xe655;" glyph-name="light-pin" d="M512 917.807c-201.007 0-367.881-163.081-367.881-367.881 0-246.519 337.541-572.681 352.711-587.852l15.17-11.378 11.378 11.378c15.17 15.17 352.711 352.711 352.711 587.852 3.793 204.8-163.081 367.881-364.089 367.881zM512 7.585c-64.474 64.474-326.163 341.333-326.163 546.133 0 182.044 147.911 329.956 329.956 329.956s329.956-147.911 329.956-329.956c-3.793-193.422-273.067-481.659-333.748-546.133zM512 762.311c-117.57 0-212.385-94.815-212.385-212.385s94.815-212.385 212.385-212.385 212.385 94.815 212.385 212.385-94.815 212.385-212.385 212.385zM512 375.467c-98.607 0-178.252 79.644-178.252 178.252s79.644 178.252 178.252 178.252 178.252-79.644 178.252-178.252c0-102.4-79.644-178.252-178.252-178.252z" />
<glyph unicode="&#xe656;" glyph-name="light-check" d="M409.6 166.874l-280.652 299.615 26.548 26.548 254.104-269.274 458.904 481.659 26.548-26.548z" />
<glyph unicode="&#xe657;" glyph-name="light-sofa" horiz-adv-x="1289" d="M1175.704 553.718h-37.926v151.704c0 53.096-41.719 94.815-94.815 94.815h-788.859c-53.096 3.793-94.815-41.719-94.815-91.022v-151.704h-37.926c-53.096 0-94.815-41.719-94.815-94.815v-295.822c0-53.096 41.719-94.815 94.815-94.815h1054.341c53.096 0 94.815 41.719 94.815 94.815v295.822c0 49.304-41.719 91.022-94.815 91.022zM1099.852 709.215v-151.704h-37.926c-53.096 0-94.815-41.719-94.815-94.815v0-56.889h-299.615v360.296h375.467c30.341 0 56.889-26.548 56.889-56.889zM329.956 364.089h640.948v-201.007c0-22.756 7.585-41.719 18.963-56.889h-678.874c11.378 15.17 18.963 34.133 18.963 56.889v201.007zM197.215 709.215c0 30.341 26.548 56.889 56.889 56.889h375.467v-364.089h-299.615v56.889c0 53.096-41.719 94.815-94.815 94.815h-37.926v155.496zM125.156 106.192c-30.341 0-56.889 26.548-56.889 56.889v295.822c0 30.341 26.548 56.889 56.889 56.889h109.985c30.341 0 56.889-26.548 56.889-56.889v-295.822c0-30.341-26.548-56.889-56.889-56.889h-109.985zM1232.593 163.081c0-30.341-26.548-56.889-56.889-56.889h-109.985c-30.341 0-56.889 26.548-56.889 56.889v295.822c0 30.341 26.548 56.889 56.889 56.889h109.985c30.341 0 56.889-26.548 56.889-56.889v-295.822z" />
<glyph unicode="&#xe658;" glyph-name="light-puzzle" d="M898.844 561.304c3.793 159.289-197.215 37.926-276.859 41.719-15.17 0 22.756 60.681 30.341 75.852 18.963 34.133 26.548 72.059 18.963 109.985-15.17 68.267-75.852 106.193-144.119 106.193-72.059 0-132.741-41.719-144.119-113.778-3.793-37.926 7.585-75.852 22.756-109.985 3.793-7.585 26.548-56.889 11.378-64.474-72.059-3.793-140.326 37.926-208.593 37.926-64.474 0-79.644-98.607-79.644-117.57s-15.17-144.119 15.17-178.252c18.963-22.756 49.304-15.17 75.852-3.793 34.133 18.963 60.681 45.511 102.4 45.511h7.585c79.644-3.793 113.778-106.193 64.474-159.289-22.756-22.756-53.096-34.133-83.437-30.341-41.719 3.793-68.267 34.133-106.193 41.719-79.644 22.756-75.852-64.474-79.644-117.57 0-45.511-7.585-144.119 60.681-144.119h663.704c26.548 0 49.304 22.756 49.304 49.304v530.963zM849.541 15.17h-663.704c-37.926 0-22.756 128.948-22.756 151.704 0 30.341 7.585 49.304 41.719 34.133 37.926-15.17 68.267-37.926 109.985-41.719 68.267-3.793 132.741 45.511 140.326 113.778 11.378 75.852-45.511 151.704-125.156 155.496h-7.585c-26.548 0-53.096-7.585-75.852-18.963-18.963-11.378-41.719-37.926-64.474-37.926-30.341 0-30.341 223.763 22.756 235.141 60.681 15.17 273.067-109.985 250.311 30.341-11.378 56.889-53.096 109.985-26.548 166.874 22.756 45.511 75.852 56.889 121.363 49.304 49.304-11.378 83.437-45.511 83.437-94.815 0-56.889-60.681-106.193-49.304-159.289 11.378-64.474 125.156-15.17 163.081-7.585 45.511 11.378 113.778 37.926 113.778-30.341v-530.963c0-7.585-7.585-15.17-11.378-15.17z" />
<glyph unicode="&#xe659;" glyph-name="light-lightbulb" d="M512 917.807c-212.385 0-341.333-163.081-341.333-322.37 0-113.778 64.474-204.8 117.57-280.652 18.963-26.548 34.133-49.304 49.304-75.852 26.548-45.511 37.926-106.193 37.926-125.156 3.793-18.963 3.793-37.926 7.585-64.474 3.793-30.341 26.548-41.719 53.096-41.719h147.911c30.341 0 41.719 11.378 49.304 41.719 3.793 18.963 7.585 41.719 11.378 64.474 11.378 45.511 15.17 72.059 34.133 109.985 15.17 30.341 41.719 79.644 60.681 106.193 53.096 75.852 106.193 147.911 106.193 269.274-3.793 151.704-121.363 318.578-333.748 318.578zM603.022 56.889c-3.793-11.378-7.585-15.17-18.963-15.17h-147.911c-11.378 0-15.17 3.793-18.963 15.17-3.793 15.17-7.585 53.096-7.585 64.474h204.8c-3.793-22.756-7.585-49.304-11.378-64.474zM621.985 163.081h-216.178c-3.793 26.548-15.17 56.889-26.548 79.644h265.481c-11.378-26.548-15.17-45.511-22.756-79.644zM701.63 333.748c-15.17-18.963-26.548-37.926-37.926-53.096h-307.2c-11.378 18.963-22.756 34.133-37.926 53.096-53.096 75.852-109.985 155.496-109.985 257.896 0 121.363 102.4 288.237 299.615 288.237 204.8 0 299.615-170.667 299.615-288.237 0-94.815-53.096-182.044-106.193-257.896z" />
<glyph unicode="&#xe65a;" glyph-name="light-glasses1" d="M1005.037 519.585c0 41.719-15.17 83.437-45.511 106.193-34.133 26.548-87.23 26.548-128.948 26.548-49.304 0-102.4-3.793-147.911-11.378h-337.541c-53.096 11.378-109.985 15.17-166.874 11.378-49.304-3.793-113.778-11.378-140.326-60.681-22.756-41.719-18.963-98.607-11.378-144.119 7.585-49.304 22.756-98.607 64.474-128.948l-53.096-49.304 26.548-22.756 56.889 56.889c68.267-30.341 170.667-30.341 238.933 7.585 56.889 34.133 87.23 102.4 106.193 166.874h98.607c15.17-64.474 45.511-132.741 106.193-166.874 68.267-41.719 166.874-41.719 235.141-7.585l56.889-56.889 22.756 22.756-49.304 49.304c26.548 22.756 41.719 49.304 53.096 79.644 11.378 34.133 15.17 79.644 15.17 121.363zM242.726 310.992c-68.267-3.793-155.496 18.963-178.252 94.815-15.17 49.304-30.341 159.289 22.756 193.422 30.341 22.756 79.644 22.756 113.778 22.756 45.511 0 91.022-3.793 136.533-11.378 30.341-7.585 72.059-15.17 91.022-45.511 22.756-30.341 7.585-87.23-7.585-121.363-18.963-49.304-56.889-132.741-178.252-132.741zM557.511 508.207h-87.23c7.585 37.926-7.585 75.852-41.719 98.607h166.874c-22.756-11.378-30.341-34.133-34.133-45.511s-7.585-37.926-3.793-53.096zM625.778 398.222c-22.756 37.926-41.719 109.985-34.133 147.911 11.378 45.511 64.474 53.096 91.022 60.681 34.133 7.585 136.533 18.963 182.044 15.17 49.304-3.793 94.815-18.963 106.193-72.059 15.17-83.437-3.793-201.007-98.607-231.348-83.437-26.548-193.422-7.585-246.519 79.644z" />
<glyph unicode="&#xe65b;" glyph-name="light-glasses2" d="M989.867 565.096c-15.17 64.474-87.23 79.644-144.119 83.437-83.437 3.793-292.030 3.793-292.030-121.363-26.548 11.378-56.889 11.378-83.437 0 0 68.267-56.889 94.815-113.778 109.985-83.437 18.963-166.874 22.756-223.763 15.17-64.474-7.585-109.985-56.889-106.193-147.911 0-68.267 18.963-151.704 68.267-182.044l-45.511-45.511 26.548-26.548 53.096 53.096c68.267-30.341 166.874-26.548 227.556 7.585 56.889 30.341 98.607 121.363 109.985 159.289s75.852 45.511 91.022 7.585c7.585-18.963 26.548-79.644 49.304-109.985 60.681-91.022 193.422-106.193 288.237-64.474l53.096-53.096 22.756 22.756-45.511 45.511c26.548 18.963 45.511 45.511 53.096 72.059 11.378 34.133 22.756 121.363 11.378 174.459zM420.978 443.733c-34.133-91.022-87.23-128.948-178.252-132.741-83.437-3.793-151.704 30.341-174.459 98.607-15.17 49.304-15.17 128.948 0 159.289 18.963 53.096 83.437 60.681 151.704 56.889 41.719 0 72.059-7.585 113.778-15.17 30.341-7.585 79.644-22.756 98.607-49.304 22.756-30.341 3.793-83.437-11.378-117.57-18.963-49.304 18.963 41.719 0 0zM686.459 337.541c-53.096 26.548-75.852 79.644-91.022 132.741-7.585 26.548-18.963 64.474 0 91.022 15.17 22.756 49.304 37.926 75.852 45.511 60.681 15.17 151.704 18.963 223.763 3.793s72.059-79.644 68.267-140.326c-3.793-68.267-22.756-121.363-94.815-144.119-68.267-22.756-128.948-15.17-182.044 11.378z" />
<glyph unicode="&#xe65c;" glyph-name="light-mustache" horiz-adv-x="1119" d="M978.489 534.755c-18.963 3.793-26.548-11.378-26.548-15.17-3.793-11.378 3.793-18.963 15.17-22.756 41.719-18.963 30.341-83.437-15.17-83.437-34.133 0-75.852 30.341-136.533 87.23-68.267 60.681-182.044 91.022-254.104 3.793-72.059 87.23-170.667 60.681-254.104-3.793-49.304-37.926-83.437-72.059-117.57-83.437-53.096-15.17-91.022 56.889-34.133 79.644 11.378 3.793 15.17 11.378 15.17 22.756 0 7.585-11.378 18.963-26.548 15.17-106.193-15.17-113.778-151.704-68.267-223.763 37.926-64.474 117.57-91.022 189.63-91.022 98.607 0 216.178 41.719 292.030 106.193 79.644-60.681 193.422-106.193 292.030-106.193 75.852 0 151.704 30.341 193.422 94.815 45.511 68.267 41.719 208.593-64.474 219.97zM845.748 257.896c-91.022 0-204.8 41.719-273.067 106.193l-11.378 11.378-11.378-11.378c-68.267-60.681-182.044-102.4-273.067-106.193-102.4-3.793-212.385 68.267-182.044 185.837 3.793-37.926 41.719-68.267 79.644-68.267v0c45.511 0 98.607 41.719 159.289 94.815 72.059 60.681 155.496 75.852 212.385-11.378l15.17-22.756 15.17 22.756c56.889 83.437 140.326 68.267 212.385 11.378 72.059-60.681 87.23-75.852 128.948-87.23 49.304-15.17 102.4 11.378 109.985 64.474 34.133-121.363-79.644-193.422-182.044-189.63z" />
<glyph unicode="&#xe65f;" glyph-name="light-box-plain" d="M694.044 659.911v125.156c0 15.17-7.585 26.548-18.963 34.133s-22.756 11.378-37.926 15.17h-257.896c-26.548 0-49.304-22.756-49.304-49.304v-125.156h-276.859v-621.985h917.807v621.985h-276.859zM769.896 621.985c7.585-83.437 75.852-151.704 159.289-163.081v-219.97c-83.437-7.585-151.704-75.852-159.289-159.289h-519.585c-7.585 83.437-75.852 151.704-159.289 159.289v219.97c83.437 7.585 151.704 75.852 159.289 159.289h519.585zM367.881 785.067c0 3.793 3.793 11.378 15.17 11.378h257.896c3.793 0 18.963-3.793 15.17-11.378v-125.156h-288.237v125.156z" />
<glyph unicode="&#xe660;" glyph-name="light-big-signage" d="M815.407 534.755l147.911 219.97h-409.6v155.496h-37.926v-151.704h-307.2l-147.911-219.97 147.911-223.763h307.2v-352.711h37.926v348.919h409.6l-147.911 223.763zM106.193 534.755l121.363 182.044h663.704l-121.363-182.044 121.363-185.837h-659.911l-125.156 185.837z" />
<glyph unicode="&#xe661;" glyph-name="light-hanger" horiz-adv-x="1221" d="M1198.459 91.022c-7.585-26.548-34.133-45.511-68.267-45.511h-1035.378c-34.133 0-60.681 15.17-68.267 41.719-11.378 30.341 3.793 60.681 30.341 83.437 37.926 26.548 443.733 292.030 462.696 303.407l18.963-30.341c-3.793-3.793-424.77-276.859-458.904-303.407-15.17-11.378-22.756-30.341-18.963-41.719s15.17-18.963 34.133-18.963h1035.378c18.963 0 30.341 7.585 34.133 18.963s0 26.548-18.963 41.719c-3.793 3.793-367.881 242.726-436.148 295.822-41.719 30.341-56.889 60.681-56.889 106.193v147.911c0 60.681-49.304 94.815-94.815 94.815s-94.815-30.341-94.815-94.815v-83.437h-37.926v87.23c0 87.23 68.267 132.741 132.741 132.741 75.852 0 132.741-56.889 132.741-132.741v-147.911c0-30.341 11.378-53.096 41.719-75.852 68.267-53.096 432.356-292.030 436.148-295.822 26.548-22.756 37.926-56.889 30.341-83.437z" />
<glyph unicode="&#xe662;" glyph-name="light-binoculars" d="M1001.244 329.955v0l-151.704 405.807c-34.133 79.644-79.644 109.985-163.081 106.193-79.644-3.793-132.741-64.474-132.741-151.704v-26.548h-75.852v26.548c0 87.23-53.096 147.911-132.741 151.704s-136.533-30.341-163.081-98.607c-11.378-34.133-151.704-398.222-155.496-413.393v0c-7.585-22.756-11.378-45.511-11.378-68.267 0-128.948 102.4-231.348 231.348-231.348 109.985 0 204.8 79.644 223.763 182.044h87.23c22.756-102.4 113.778-182.044 223.763-182.044 128.948 0 231.348 102.4 231.348 231.348 0 22.756-3.793 45.511-11.378 68.267zM242.726 68.267c-106.193 0-193.422 87.23-193.422 193.422s87.23 193.422 193.422 193.422 193.422-87.23 193.422-193.422-87.23-193.422-193.422-193.422zM436.148 386.844c-41.719 64.474-113.778 102.4-193.422 102.4-49.304 0-98.607-15.17-136.533-45.511 41.719 113.778 98.607 261.689 106.193 280.652 22.756 53.096 60.681 79.644 121.363 75.852 49.304-3.793 98.607-34.133 98.607-113.778v-299.615h3.793zM474.074 250.311v375.467h75.852v-375.467h-75.852zM584.059 690.252c0 79.644 53.096 109.985 102.4 113.778 64.474 3.793 98.607-18.963 125.156-79.644l102.4-276.859c-37.926 26.548-83.437 45.511-136.533 45.511-79.644 0-151.704-41.719-193.422-102.4v299.615zM781.274 68.267c-106.193 0-193.422 87.23-193.422 193.422s87.23 193.422 193.422 193.422 193.422-87.23 193.422-193.422-87.23-193.422-193.422-193.422z" />
<glyph unicode="&#xe663;" glyph-name="light-book" horiz-adv-x="1320" d="M967.111 868.504c-182.044 0-276.859-49.304-307.2-72.059-30.341 22.756-121.363 72.059-307.2 72.059-231.348 0-326.163-60.681-326.163-60.681v-804.030c0 0 128.948 60.681 326.163 60.681 132.741 0 231.348-18.963 284.444-37.926h49.304c0 0 151.704 37.926 280.652 37.926 185.837 0 326.163-60.681 326.163-60.681v804.030c0 0-94.815 60.681-326.163 60.681zM352.711 102.4c-140.326 0-242.726-26.548-288.237-41.719v724.385c26.548 11.378 113.778 45.511 288.237 45.511 182.044 0 265.481-53.096 288.237-68.267v-694.044c-30.341 7.585-125.156 34.133-288.237 34.133zM1255.348 60.681c-45.511 15.17-144.119 41.719-288.237 41.719-163.081 0-254.104-26.548-288.237-37.926v697.837c22.756 15.17 106.193 68.267 288.237 68.267 178.252 0 261.689-30.341 288.237-45.511v-724.385z" />
<glyph unicode="&#xe664;" glyph-name="light-pocket" horiz-adv-x="1119" d="M678.874 219.97c-49.304 0-49.304 75.852 0 75.852s49.304-75.852 0-75.852zM1096.059 462.696l-98.607 299.615c-7.585 30.341-41.719 45.511-72.059 37.926l-485.452-155.496c-18.963-7.585-34.133-22.756-37.926-41.719h41.719c3.793 0 3.793 3.793 7.585 3.793l485.452 155.496c11.378 3.793 18.963-3.793 22.756-11.378l15.17-49.304-314.785-102.4h87.23c30.341 0 56.889-11.378 79.644-26.548l170.667 56.889 56.889-178.252c3.793-11.378-3.793-18.963-11.378-22.756l-155.496-49.304v-41.719l170.667 53.096c30.341 11.378 45.511 41.719 37.926 72.059zM280.652 599.229h41.719l-30.341 91.022c-3.793 11.378 0 22.756 11.378 22.756l485.452 159.289c11.378 3.793 18.963-3.793 22.756-11.378l15.17-45.511 37.926 11.378-18.963 45.511c-7.585 30.341-41.719 45.511-72.059 37.926l-481.659-159.289c-30.341-11.378-45.511-41.719-37.926-72.059l26.548-79.644zM845.748 458.904v-402.015c0-53.096-41.719-94.815-94.815-94.815h-621.985c-53.096 0-94.815 41.719-94.815 94.815v580.267c0 64.474 53.096 117.57 117.57 117.57h72.059c-7.585-11.378-15.17-22.756-15.17-37.926h-56.889c-106.193 0-106.193-163.081 0-163.081h599.23c49.304 0 94.815-41.719 94.815-94.815zM807.822 458.904c0 30.341-26.548 56.889-56.889 56.889h-599.23c-30.341 0-60.681 11.378-79.644 30.341v-493.037c0-30.341 26.548-56.889 56.889-56.889h621.985c30.341 0 56.889 26.548 56.889 56.889v405.807z" />
<glyph unicode="&#xe665;" glyph-name="light-money" horiz-adv-x="1107" d="M1084.681 762.311v-504.415h-113.778v37.926h75.852v428.563h-804.030v-68.267h-37.926v106.193h879.881zM906.43 618.192v0-504.415h-876.089v504.415h876.089zM868.504 458.904c-60.681 7.585-109.985 56.889-117.57 117.57h-565.096c-7.585-60.681-56.889-109.985-117.57-117.57v-193.422c60.681-7.585 109.985-56.889 117.57-117.57h565.096c7.585 60.681 56.889 109.985 117.57 117.57v193.422zM477.867 458.904c-53.096 0-94.815-41.719-94.815-94.815s41.719-94.815 94.815-94.815 94.815 41.719 94.815 94.815c3.793 53.096-41.719 94.815-94.815 94.815z" />
<glyph unicode="&#xe666;" glyph-name="light-suitcase1" d="M667.496 678.874v113.778c0 15.17-15.17 30.341-34.133 30.341h-242.726c-18.963 0-34.133-15.17-34.133-30.341v-113.778h-322.37v-629.57h955.733v629.57h-322.37zM394.43 785.067h231.348v-102.4h-231.348v102.4zM951.941 640.948v-189.63l-197.215-30.341v30.341h-37.926v-37.926l-185.837-30.341-223.763 34.133v34.133h-37.926v-30.341l-197.215 30.341v189.63h879.881zM72.059 87.229v326.163l197.215-30.341v-68.267h37.926v64.474l219.97-34.133h3.793l185.837 30.341v-56.889h37.926v60.681l197.215 30.341v-326.163h-879.881z" />
<glyph unicode="&#xe667;" glyph-name="light-suitcase2" d="M667.496 678.874v113.778c0 15.17-15.17 30.341-34.133 30.341h-242.726c-18.963 0-34.133-15.17-34.133-30.341v-113.778h-322.37v-629.57h955.733v629.57h-322.37zM394.43 785.067h231.348v-102.4h-231.348v102.4zM951.941 640.948v-189.63l-405.807-64.474v49.304h-37.926v-49.304l-436.148 64.474v189.63h879.881zM72.059 87.229v326.163l436.148-64.474v-45.511h37.926v45.511l405.807 64.474v-326.163h-879.881z" />
<glyph unicode="&#xe668;" glyph-name="light-map" d="M656.119 804.029l-288.237 113.778-307.2-121.363v-849.541l307.2 117.57 288.237-113.778 307.2 117.57v857.126l-307.2-121.363zM386.844 868.504l250.311-98.607v-769.896l-250.311 98.607v769.896zM98.607 773.689l250.311 98.607v-769.896l-250.311-98.607v769.896zM925.393 98.607l-250.311-98.607v773.689l250.311 98.607v-773.689z" />
<glyph unicode="&#xe669;" glyph-name="light-target" d="M978.489 436.148c0 257.896-208.593 466.489-466.489 466.489s-466.489-208.593-466.489-466.489c0-136.533 60.681-257.896 151.704-341.333l-87.23-91.022 26.548-26.548 91.022 91.022c79.644-60.681 178.252-98.607 284.444-98.607s204.8 37.926 284.444 94.815l91.022-91.022 26.548 26.548-87.23 87.23c91.022 91.022 151.704 212.385 151.704 348.919zM83.437 436.148c0 235.141 193.422 428.563 428.563 428.563s428.563-193.422 428.563-428.563-193.422-428.563-428.563-428.563-428.563 193.422-428.563 428.563zM512 739.555c-166.874 0-303.407-136.533-303.407-303.407s136.533-303.407 303.407-303.407 303.407 136.533 303.407 303.407-136.533 303.407-303.407 303.407zM512 170.667c-144.119 0-265.481 117.57-265.481 265.481 0 144.119 117.57 265.481 265.481 265.481s265.481-117.57 265.481-265.481c0-144.119-121.363-265.481-265.481-265.481zM512 595.437c-87.23 0-159.289-72.059-159.289-159.289s72.059-159.289 159.289-159.289 159.289 72.059 159.289 159.289-72.059 159.289-159.289 159.289zM512 314.785c-68.267 0-121.363 56.889-121.363 121.363s56.889 121.363 121.363 121.363 121.363-56.889 121.363-121.363-53.096-121.363-121.363-121.363z" />
<glyph unicode="&#xe66a;" glyph-name="light-label" d="M978.489 512c-30.341 37.926-178.252 182.044-204.8 208.593-26.548 22.756-53.096 34.133-91.022 34.133h-553.719c-56.889 0-106.193-49.304-106.193-109.985v-417.185c0-60.681 49.304-106.193 106.193-106.193h553.719c34.133 0 56.889 3.793 87.23 30.341 26.548 22.756 182.044 182.044 204.8 212.385 34.133 37.926 34.133 109.985 3.793 147.911zM948.148 386.844c-22.756-30.341-174.459-185.837-201.007-208.593-18.963-18.963-34.133-22.756-64.474-22.756h-553.719c-37.926 0-68.267 30.341-68.267 68.267v420.978c0 37.926 30.341 68.267 68.267 68.267h557.511c26.548 0 45.511-7.585 64.474-22.756 26.548-22.756 170.667-170.667 201.007-204.8 18.963-22.756 15.17-72.059-3.793-98.607zM849.541 436.148c0-18.963-15.17-37.926-37.926-37.926-18.963 0-37.926 15.17-37.926 37.926s15.17 37.926 37.926 37.926c22.756 0 37.926-18.963 37.926-37.926z" />
<glyph unicode="&#xe66b;" glyph-name="light-cup" horiz-adv-x="947" d="M298.082 607.984h-31.562v203.397h31.562v-203.397zM427.836 913.080h-31.562v-301.589h31.562v301.589zM557.589 811.381h-31.562v-199.89h31.562v199.89zM820.603 369.518v-234.959c0-14.027-10.521-28.055-24.548-28.055h-98.192v-70.137c0-42.082-35.068-80.658-80.658-80.658h-410.301c-42.082 0-80.658 35.068-80.658 80.658v490.959h568.11v-129.753h98.192c14.027 0 28.055-10.521 28.055-28.055zM659.288 492.258h-497.973v-455.89c0-24.548 21.041-45.589 45.589-45.589h410.301c24.548 0 45.589 21.041 45.589 45.589v455.89zM785.534 362.504h-87.671v-220.932h87.671v220.932z" />
<glyph unicode="&#xe66c;" glyph-name="light-camera" d="M731.97 678.874l-18.963 117.57h-402.015l-18.963-117.57h-246.519v-599.23h929.185v599.23h-242.726zM322.37 640.948l18.963 113.778h341.333l18.963-117.57h238.933v-238.933h-216.178c-3.793 117.57-98.607 208.593-212.385 208.593s-208.593-91.022-212.385-204.8h-216.178v238.933h238.933zM686.459 394.429c0-94.815-79.644-174.459-174.459-174.459s-174.459 79.644-174.459 174.459 79.644 174.459 174.459 174.459 174.459-79.644 174.459-174.459zM83.437 117.57v246.519h219.97c15.17-102.4 102.4-182.044 208.593-182.044s193.422 79.644 208.593 182.044h219.97v-246.519h-857.126zM815.407 553.718c0 15.17 11.378 26.548 26.548 26.548s26.548-11.378 26.548-26.548-11.378-26.548-26.548-26.548c-15.17 0-26.548 11.378-26.548 26.548z" />
<glyph unicode="&#xe66d;" glyph-name="light-print" horiz-adv-x="843" d="M674.341 489.221c0-12.488-9.366-21.854-21.854-21.854s-21.854 9.366-21.854 21.854 9.366 21.854 21.854 21.854 21.854-9.366 21.854-21.854zM718.049 511.075c-12.488 0-21.854-9.366-21.854-21.854s9.366-21.854 21.854-21.854 21.854 9.366 21.854 21.854-9.366 21.854-21.854 21.854zM824.195 529.807v-355.902c0-43.707-34.341-78.049-78.049-78.049h-118.634v-146.732h-412.098v146.732h-118.634c-43.707 0-78.049 34.341-78.049 78.049v355.902c0 43.707 34.341 78.049 78.049 78.049h49.951v93.659c0 40.585 31.22 71.805 68.683 78.049v134.244h412.098v-134.244c37.463-6.244 68.683-37.463 68.683-78.049v-93.659h49.951c43.707 0 78.049-34.341 78.049-78.049zM627.512 748.343v-140.488h37.463v93.659c0 24.976-15.61 43.707-37.463 46.829zM246.634 607.855h349.659v274.732h-349.659v-274.732zM177.951 607.855h37.463v140.488c-21.854-3.122-37.463-21.854-37.463-43.707v-96.78zM596.293 258.197h-349.659v-274.732h349.659v274.732zM792.976 529.807c0 24.976-21.854 46.829-46.829 46.829h-649.366c-24.976 0-46.829-21.854-46.829-46.829v-355.902c0-24.976 21.854-46.829 46.829-46.829h118.634v159.22h412.098v-159.22h118.634c24.976 0 46.829 21.854 46.829 46.829v355.902z" />
<glyph unicode="&#xe66e;" glyph-name="light-set" d="M762.311 333.748l117.57 18.963v166.874l-117.57 18.963v3.793l72.059 94.815-117.57 117.57-98.607-72.059h-3.793l-18.963 117.57h-166.874l-18.963-117.57h-3.793l-94.815 72.059-117.57-117.57 72.059-94.815-3.793-3.793-117.57-18.963v-166.874l117.57-18.963v-3.793l-72.059-94.815 117.57-117.57 94.815 72.059h3.793l18.963-117.57h166.874l18.963 117.57h3.793l94.815-72.059 117.57 117.57-68.267 94.815 3.793 3.793zM781.274 238.933l-72.059-72.059-87.23 64.474-45.511-18.963-15.17-106.193h-102.4l-15.17 106.193-41.719 18.963-87.23-64.474-72.059 72.059 64.474 87.23-18.963 45.511-106.193 15.17v102.4l106.193 15.17 18.963 45.511-64.474 83.437 72.059 72.059 87.23-64.474 45.511 18.963 15.17 106.193h102.4l15.17-106.193 41.719-18.963 87.23 64.474 72.059-72.059-64.474-87.23 18.963-45.511 106.193-15.17v-102.4l-106.193-15.17-18.963-41.719 64.474-87.23zM512 553.718c-64.474 0-117.57-53.096-117.57-117.57s53.096-117.57 117.57-117.57 117.57 53.096 117.57 117.57-53.096 117.57-117.57 117.57zM512 356.504c-45.511 0-79.644 34.133-79.644 79.644s34.133 79.644 79.644 79.644 79.644-34.133 79.644-79.644c0-45.511-34.133-79.644-79.644-79.644z" />
<glyph unicode="&#xe66f;" glyph-name="light-pinmap" d="M512 917.807c-201.007 0-367.881-163.081-367.881-367.881 0-246.519 367.881-599.23 367.881-599.23s364.089 364.089 364.089 599.23c3.793 204.8-163.081 367.881-364.089 367.881zM512 3.792c-64.474 64.474-329.956 341.333-329.956 546.133 0 182.044 147.911 329.956 329.956 329.956s329.956-147.911 329.956-329.956c-3.793-189.63-269.274-481.659-329.956-546.133zM512 762.311c-117.57 0-212.385-94.815-212.385-212.385s94.815-212.385 212.385-212.385 212.385 94.815 212.385 212.385-94.815 212.385-212.385 212.385zM512 371.674c-98.607 0-178.252 79.644-178.252 178.252s79.644 174.459 178.252 174.459 178.252-75.852 178.252-174.459c0-102.4-79.644-178.252-178.252-178.252z" />
<glyph unicode="&#xe670;" glyph-name="light-upload" d="M318.578 587.852l-26.548 26.548 219.97 219.97 219.97-219.97-26.548-26.548-174.459 174.459v-614.4h-37.926v614.4l-174.459-174.459zM37.926 75.852v-37.926h948.148v37.926h-948.148z" />
<glyph unicode="&#xe671;" glyph-name="light-edit" horiz-adv-x="944" d="M674.512 172.285h-188.724v-188.724h-429.87v772.369h426.375v34.949h-461.324v-842.266h510.253l178.239 178.239v325.024h-34.949v-279.59zM520.737-12.944v146.785h150.28l-150.28-146.785zM908.669 857.281l-52.423 52.423c-20.969 20.969-66.403 17.474-94.362-13.98l-447.345-443.85-34.949-164.259 167.754 31.454 447.345 443.85c31.454 27.959 34.949 69.898 13.98 94.362zM349.488 333.049c-3.495 6.99-10.485 13.98-20.969 20.969l13.98 66.403 73.392-73.392-66.403-13.98zM450.84 364.503l-83.877 83.877 363.468 370.457 83.877-83.877-363.468-370.457zM870.225 787.383l-27.959-27.959-87.372 83.877 27.959 27.959c10.485 10.485 24.464 17.474 34.949 17.474 3.495 0 6.99 0 10.485-3.495l52.423-52.423c10.485-6.99 6.99-31.454-10.485-45.433z" />
<glyph unicode="&#xe672;" glyph-name="light-box-send" d="M1008.83 345.126l-477.867-174.459-7.585 22.756 477.867 174.459 7.585-22.756zM341.333 280.652l-178.252 493.037-132.741 56.889-11.378-22.756 121.363-53.096 174.459-477.867 26.548 3.793zM318.578 606.815l147.911 53.096-22.756 68.267c-3.793 11.378-3.793 30.341 22.756 41.719l140.326 53.096c15.17 3.793 37.926-3.793 41.719-15.17l22.756-64.474 147.911 53.096 121.363-345.126-504.415-185.837-117.57 341.333zM439.941 621.985c11.378-45.511-11.378-94.815-53.096-117.57l41.719-121.363c45.511 11.378 94.815-15.17 117.57-53.096l284.444 102.4c-11.378 45.511 11.378 94.815 53.096 117.57l-41.719 121.363c-45.511-11.378-94.815 11.378-117.57 53.096l-284.444-102.4zM496.83 671.289l155.496 53.096-22.756 64.474c0 0-3.793 3.793-7.585 0l-140.326-53.096c-3.793 0-3.793-3.793-3.793-3.793l18.963-60.681zM379.259 18.963c-60.681 0-109.985 49.304-109.985 109.985s49.304 109.985 109.985 109.985 109.985-49.304 109.985-109.985-45.511-109.985-109.985-109.985zM379.259 212.385c-45.511 0-83.437-37.926-83.437-83.437s37.926-83.437 83.437-83.437 83.437 37.926 83.437 83.437-34.133 83.437-83.437 83.437z" />
<glyph unicode="&#xe673;" glyph-name="light-alert" d="M512 910.222c-261.689 0-474.074-212.385-474.074-474.074s212.385-474.074 474.074-474.074 474.074 212.385 474.074 474.074-212.385 474.074-474.074 474.074zM512 0c-242.726 0-436.148 193.422-436.148 436.148s193.422 436.148 436.148 436.148 436.148-193.422 436.148-436.148-193.422-436.148-436.148-436.148zM474.074 166.874h60.681v79.644h-60.681v-79.644zM519.585 295.822l11.378 238.933v159.289h-49.304v-159.289l11.378-238.933h26.548z" />
<glyph unicode="&#xe674;" glyph-name="light-open-mail" horiz-adv-x="944" d="M894.689 525.267l-373.952 373.952c-24.464 24.464-66.403 24.464-90.867 0l-373.952-377.447v-566.171h838.771v569.666zM520.737 287.616c-24.464 20.969-66.403 20.969-94.362 0l-59.413-48.928-251.631 251.631h716.451l-251.631-251.631-59.413 48.928zM90.867 465.854l251.631-251.631-251.631-206.198v457.829zM447.345 259.657c13.98 10.485 34.949 13.98 48.928 0l328.519-272.601h-705.966l328.519 272.601zM608.109 217.718l251.631 248.137v-457.829l-251.631 209.693zM454.334 874.756c10.485 10.485 27.959 10.485 38.444 0l342.498-349.488h-733.925l352.983 349.488z" />
<glyph unicode="&#xe675;" glyph-name="light-doctor" d="M860.919 420.978c-41.719 0-79.644-30.341-87.23-72.059h-79.644c-30.341 0-53.096-22.756-53.096-53.096v-132.741c0-79.644-64.474-144.119-144.119-144.119s-144.119 64.474-144.119 144.119v185.837c132.741 7.585 235.141 109.985 235.141 231.348v246.519c0 37.926-30.341 64.474-72.059 64.474h-83.437v-37.926h83.437c18.963 0 34.133-11.378 34.133-26.548v-242.726c0-106.193-98.607-193.422-216.178-193.422-106.193 0-219.97 83.437-219.97 193.422v242.726c0 15.17 15.17 26.548 34.133 26.548h87.23v37.926h-91.022c-37.926 0-68.267-30.341-68.267-64.474v-242.726c0-121.363 106.193-223.763 235.141-231.348v-185.837c0-102.4 83.437-182.044 182.044-182.044 117.57 0 185.837 87.23 185.837 189.63v125.156c0 7.585 7.585 15.17 15.17 15.17h83.437c7.585-41.719 45.511-72.059 87.23-72.059 53.096 0 87.23 41.719 87.23 91.022s-41.719 87.23-91.022 87.23zM860.919 273.067c-26.548 0-56.889 22.756-56.889 56.889s22.756 56.889 56.889 56.889 56.889-22.756 56.889-56.889c0-34.133-30.341-56.889-56.889-56.889z" />
<glyph unicode="&#xe676;" glyph-name="light-paint" d="M959.526 436.148v295.822h-83.437v37.926c0 53.096-41.719 94.815-94.815 94.815h-591.644c-53.096 0-94.815-41.719-94.815-94.815v-37.926h-30.341v-37.926h26.548v-49.304c0-53.096 41.719-94.815 94.815-94.815h591.644c53.096 0 94.815 41.719 94.815 94.815v49.304h45.511v-219.97h-455.111v-140.326h-72.059v-326.163h178.252v326.163h-72.059v102.4h462.696zM838.163 644.741c0-30.341-26.548-56.889-56.889-56.889h-591.644c-34.133 0-56.889 26.548-56.889 56.889v125.156c0 30.341 26.548 56.889 56.889 56.889h591.644c30.341 0 56.889-26.548 56.889-56.889v-125.156zM530.963 45.511h-102.4v250.311h102.4v-250.311z" />
<glyph unicode="&#xe677;" glyph-name="light-cook" d="M785.067 743.348c-26.548 0-49.304-3.793-72.059-15.17-34.133 83.437-109.985 136.533-201.007 136.533s-166.874-53.096-201.007-136.533c-22.756 11.378-45.511 15.17-72.059 15.17-102.4 0-182.044-83.437-182.044-182.044 0-94.815 72.059-170.667 163.081-182.044l15.17-371.674h549.926l15.17 371.674c91.022 7.585 163.081 87.23 163.081 182.044 3.793 98.607-79.644 182.044-178.252 182.044zM273.067 49.304l-3.793 113.778h489.244l-3.793-113.778h-481.659zM785.067 417.185h-18.963l-7.585-216.178h-493.037l-7.585 216.178h-18.963c-79.644 0-144.119 64.474-144.119 144.119s64.474 144.119 144.119 144.119c26.548 0 49.304-7.585 72.059-18.963l22.756-11.378 7.585 18.963c22.756 75.852 91.022 128.948 170.667 128.948s147.911-53.096 170.667-128.948l7.585-22.756 22.756 11.378c22.756 15.17 49.304 18.963 72.059 18.963 79.644 0 144.119-64.474 144.119-144.119 0-75.852-64.474-140.326-144.119-140.326zM383.052 428.563l15.17-109.985-37.926-3.793-15.17 109.985 37.926 3.793zM640.948 428.563l37.926-3.793-15.17-109.985-37.926 3.793 15.17 109.985zM493.037 439.941h37.926v-117.57h-37.926v117.57z" />
<glyph unicode="&#xe678;" glyph-name="light-wine" d="M530.963 284.444c7.585 11.378 30.341 22.756 53.096 34.133 72.059 41.719 178.252 98.607 178.252 227.556 0 144.119-68.267 295.822-79.644 326.163h-341.333c-11.378-26.548-79.644-182.044-79.644-326.163 0-128.948 106.193-189.63 178.252-227.556 22.756-11.378 45.511-26.548 53.096-34.133v-254.104h-178.252v-37.926h394.43v37.926h-178.252v254.104zM455.111 356.504c-68.267 37.926-155.496 91.022-155.496 197.215 0 113.778 53.096 242.726 68.267 284.444h288.237c15.17-37.926 68.267-166.874 68.267-284.444 0-106.193-83.437-159.289-151.704-197.215-22.756-11.378-49.304-26.548-60.681-37.926-15.17 15.17-34.133 22.756-56.889 37.926z" />
<glyph unicode="&#xe679;" glyph-name="light-cocktail" d="M921.6 902.637v37.926h-117.57l-109.985-204.8h-557.511c-15.17 0-26.548-7.585-30.341-22.756-7.585-7.585-3.793-22.756 3.793-30.341s231.348-246.519 348.919-375.467v-337.541h-174.459v-37.926h394.43v37.926h-178.252v337.541c121.363 128.948 341.333 367.881 348.919 375.467 11.378 11.378 11.378 22.756 7.585 34.133-7.585 15.17-18.963 22.756-34.133 22.756h-83.437l87.23 166.874h94.815zM284.444 553.718h394.43c-75.852-83.437-163.081-174.459-197.215-212.385-34.133 37.926-121.363 128.948-197.215 212.385zM713.007 591.644h-466.489c-41.719 49.304-79.644 87.23-98.607 106.193h663.704c-15.17-15.17-53.096-56.889-98.607-106.193z" />
<glyph unicode="&#xe67a;" glyph-name="light-calendar" d="M773.689 822.992v56.889h-37.926v-56.889h-455.111v56.889h-37.926v-56.889h-155.496v-834.37h849.541v834.37h-163.081zM246.519 785.067v-53.096h37.926v53.096h455.111v-53.096h37.926v53.096h125.156v-144.119h-777.481v144.119h121.363zM125.156 603.022h773.689v-333.748h-246.519v-238.933h-527.17v572.681zM872.296 231.348l-182.044-174.459v174.459h182.044zM716.8 30.341l182.044 174.459v-174.459h-182.044z" />
<glyph unicode="&#xe67b;" glyph-name="light-calendar1" d="M773.689 822.992v56.889h-37.926v-56.889h-455.111v56.889h-37.926v-56.889h-155.496v-834.37h849.541v834.37h-163.081zM246.519 785.067v-53.096h37.926v53.096h455.111v-53.096h37.926v53.096h125.156v-144.119h-777.481v144.119h121.363zM125.156 603.022h773.689v-333.748h-246.519v-238.933h-527.17v572.681zM872.296 231.348l-182.044-174.459v174.459h182.044zM716.8 30.341l182.044 174.459v-174.459h-182.044zM542.341 489.244v-341.333h-30.341v254.104h-91.022v22.756c15.17 0 26.548 0 37.926 3.793s18.963 3.793 26.548 7.585c7.585 3.793 15.17 11.378 18.963 18.963s7.585 18.963 11.378 37.926h26.548z" />
<glyph unicode="&#xe67c;" glyph-name="light-calendar-select" d="M773.689 822.992v56.889h-37.926v-56.889h-455.111v56.889h-37.926v-56.889h-155.496v-834.37h849.541v834.37h-163.081zM246.519 785.067v-53.096h37.926v53.096h455.111v-53.096h37.926v53.096h125.156v-144.119h-777.481v144.119h121.363zM125.156 603.022h773.689v-333.748h-246.519v-238.933h-527.17v572.681zM872.296 231.348l-182.044-174.459v174.459h182.044zM716.8 30.341l182.044 178.252v-178.252h-182.044zM398.222 458.904h-98.607v37.926h94.815v-37.926zM299.615 257.896h94.815v-37.926h-94.815v37.926zM743.348 458.904h-94.815v37.926h94.815v-37.926zM208.593 106.192h284.444v265.481h-284.444v-265.481zM246.519 333.748h208.593v-189.63h-208.593v189.63z" />
</font>
</defs>
</svg>
