<?xml version="1.0" encoding="UTF-8"?>
<svg width="200px" height="30px" viewBox="0 0 200 30" version="1.1" xmlns="http://www.w3.org/2000/svg" xmlns:xlink="http://www.w3.org/1999/xlink">
    <!-- Generator: Sketch 46.1 (44463) - http://www.bohemiancoding.com/sketch -->
    <title>logo</title>
    <desc>Created with Sketch.</desc>
    <defs></defs>
    <g id="Symbols" stroke="none" stroke-width="1" fill="none" fill-rule="evenodd">
        <g id="HEADER" transform="translate(-250.000000, -9.000000)" fill="#FFFFFF">
            <g id="logo">
                <g transform="translate(250.000000, 9.000000)">
                    <path d="M49.2051471,13.2125 C49.3301471,12.5933824 48.3080882,11.6933824 48.2772059,11.6007353 C48.3316176,11.5183824 48.6933824,11.0757353 48.8919118,10.6433824 C49.1389706,10.0933824 49.2257353,9.67720588 49.2257353,9.67720588 L49.1727941,9.5125 C49.1727941,9.5125 48.4227941,9.45220588 47.7183824,9.62426471 C47.1095588,9.77720588 46.9375,9.85220588 46.9375,9.85220588 L45.3272059,8.09632353 L44.9845588,8.14191176 C44.9845588,8.14191176 44.6330882,8.81691176 44.9375,9.7375 C44.9375,9.7375 43.1198529,10.7404412 40.1551471,10.7404412 C40.1551471,8.79926471 38.9713235,9.58602941 35.7183824,7.72132353 C34.5507353,7.06102941 35.2080882,5.92279412 35.2080882,5.92279412 C28.9522059,3.79485294 20.2889706,0.000735294118 20.2889706,0.000735294118 C20.2889706,0.000735294118 19.9595588,0.481617647 19.9595588,0.484558824 C19.9595588,0.484558824 22.7625,3.07573529 27.2330882,7.46985294 L26.9375,8.15955882 C24.5036765,6.98897059 23.2536765,5.44191176 23.2536765,5.44191176 L22.9389706,5.84338235 C22.9389706,5.84338235 24.6713235,10.2448529 28.0536765,13.7919118 C31.4389706,17.3375 34.1389706,17.0477941 34.1389706,17.0477941 L34.1448529,17.5286765 C26.7227941,17.5286765 23.0654412,11.3213235 23.0654412,11.3213235 C23.0654412,11.3213235 20.9360294,11.4698529 19.0610294,11.9992647 C17.1889706,12.5301471 16.3036765,13.1522059 16.3036765,13.1522059 C16.3036765,13.1522059 13.3036765,20.5625 9.29632353,23.0080882 C5.01985294,25.6139706 0.000735294117,25.5816176 0.000735294117,25.5816176 L0.000735294117,25.9213235 C0.000735294117,25.9213235 6.33161765,26.5727941 10.3875,23.9375 C13.9022059,21.6536765 15.4948529,18.1992647 15.4948529,18.1992647 L15.6948529,18.2801471 C15.6948529,18.2801471 15.3330882,19.7007353 14.3477941,21.2595588 C13.3610294,22.8183824 12.4860294,24.1742647 12.4860294,24.1742647 C12.4860294,24.1742647 12.3433824,25.0595588 12.3036765,25.9213235 C12.2625,26.7845588 12.3183824,27.9036765 12.4198529,28.1522059 C12.5227941,28.3977941 13.4095588,29.2933824 13.4095588,29.2933824 L15.1301471,29.2933824 C15.9566176,29.2933824 14.5860294,27.9919118 14.4948529,27.6448529 C14.4036765,27.3022059 14.6257353,25.2536765 14.6257353,25.2536765 C14.6257353,25.2536765 16.7772059,23.0022059 18.4742647,21.8772059 C20.1654412,20.7536765 21.4477941,20.2404412 21.4477941,20.2404412 L21.5698529,20.4683824 C21.5698529,20.4683824 21.1301471,20.6757353 20.2242647,21.3330882 C19.3213235,21.9948529 18.7713235,22.4977941 18.7713235,22.4977941 C18.7713235,22.4977941 18.6139706,22.9963235 18.6139706,24.0801471 C18.6139706,25.1639706 18.5316176,25.5669118 18.9448529,26.0301471 C19.3580882,26.4948529 21.5433824,29.2933824 21.5433824,29.2933824 L22.9330882,29.2933824 C23.5963235,29.2933824 23.8889706,28.0169118 23.8889706,28.0169118 C23.8889706,28.0169118 23.1169118,27.5536765 22.4080882,27.5536765 C22.4080882,27.5536765 21.2683824,25.5977941 21.1889706,25.3536765 C21.1125,25.1139706 21.6036765,23.9051471 22.1183824,23.0389706 C22.6772059,22.1022059 23.2477941,21.5463235 23.2477941,21.5463235 C23.2477941,21.5463235 23.7272059,21.7169118 24.3286765,21.7742647 C24.9286765,21.8330882 25.4330882,21.7933824 25.4330882,21.7933824 C25.4330882,19.7007353 30.8551471,21.4536765 30.8551471,21.4536765 C30.8551471,21.4536765 30.1566176,22.2110294 29.3683824,23.8154412 C28.8992647,24.7919118 28.7933824,25.1683824 28.6286765,25.8169118 C28.4801471,26.3919118 28.4360294,26.7625 28.4360294,26.7625 L29.9477941,29.4051471 L32.7580882,29.4051471 C33.3419118,29.4051471 33.5816176,28.2477941 33.5816176,28.2477941 C33.5816176,28.2477941 32.7948529,27.7316176 31.9963235,27.7316176 L31.5330882,26.4801471 C31.5330882,26.4801471 32.0272059,24.7419118 34.6389706,22.6477941 C37.2477941,20.5507353 39.2213235,19.6095588 39.2213235,19.6095588 L39.5139706,20.1845588 L37.9286765,22.6227941 C41.4786765,24.4713235 42.8272059,29.3904412 42.8272059,29.3904412 C42.8272059,29.3904412 44.7948529,29.4051471 45.6860294,29.4051471 C46.5772059,29.4051471 46.4683824,27.5742647 46.4683824,27.5742647 C46.4683824,27.5742647 45.3669118,27.0419118 44.4139706,27.0419118 L41.9375,20.7595588 C41.9375,20.7595588 41.8463235,19.9066176 41.9110294,19.1551471 C41.9786765,18.4007353 42.2022059,17.7919118 42.2022059,17.7919118 C42.2022059,17.7919118 44.1110294,16.5551471 45.2404412,17.3522059 C46.3742647,18.1536765 47.0095588,18.1816176 47.0095588,18.1816176 L47.6330882,17.8213235 C47.6330882,17.8213235 45.5448529,16.3919118 47.0860294,15.6654412 C48.2036765,15.1375 49.2830882,16.5213235 49.2830882,16.5213235 C49.9551471,15.7404412 49.8669118,15.2477941 49.8669118,15.2477941 C49.8669118,15.2477941 49.0095588,14.1933824 49.2051471,13.2125 L49.2051471,13.2125 Z M196.175735,12.3610294 L192.4625,18.4639706 L188.813971,12.3610294 L184.881618,12.3610294 L190.758088,21.5683824 L190.758088,27.5625 L194.122794,27.5625 L194.122794,21.5036765 L199.999265,12.3610294 L196.175735,12.3610294 Z M180.555147,17.5948529 C180.555147,18.8757353 179.615441,19.7448529 177.977206,19.7448529 L174.568382,19.7448529 L174.568382,15.3786765 L177.911029,15.3786765 C179.550735,15.3786765 180.555147,16.1183824 180.555147,17.5507353 L180.555147,17.5948529 Z M183.9625,17.4213235 L183.9625,17.3772059 C183.9625,14.2507353 181.799265,12.3610294 178.194853,12.3610294 L171.205147,12.3610294 L171.205147,27.5625 L174.568382,27.5625 L174.568382,22.6977941 L177.2125,22.6977941 L180.488971,27.5625 L184.421324,27.5625 L180.686029,22.1330882 C182.630147,21.4169118 183.9625,19.8742647 183.9625,17.4213235 L183.9625,17.4213235 Z M159.911029,21.3948529 L167.119853,21.3948529 L167.119853,18.4198529 L159.911029,18.4198529 L159.911029,15.3360294 L168.103676,15.3360294 L168.103676,12.3610294 L156.568382,12.3610294 L156.568382,27.5625 L168.2125,27.5625 L168.2125,24.5875 L159.911029,24.5875 L159.911029,21.3948529 Z M141.319853,15.4448529 L145.972794,15.4448529 L145.972794,27.5625 L149.338971,27.5625 L149.338971,15.4448529 L153.990441,15.4448529 L153.990441,12.3610294 L141.319853,12.3610294 L141.319853,15.4448529 Z M127.163971,15.4448529 L131.816912,15.4448529 L131.816912,27.5625 L135.181618,27.5625 L135.181618,15.4448529 L139.836029,15.4448529 L139.836029,12.3610294 L127.163971,12.3610294 L127.163971,15.4448529 Z M121.069853,27.5625 L124.434559,27.5625 L124.434559,12.3610294 L121.069853,12.3610294 L121.069853,27.5625 Z M106.586029,27.5625 L109.950735,27.5625 L109.950735,21.6772059 L117.247794,21.6772059 L117.247794,18.6375 L109.950735,18.6375 L109.950735,15.4022059 L118.230147,15.4022059 L118.230147,12.3610294 L106.586029,12.3610294 L106.586029,27.5625 Z M91.3389706,15.4448529 L95.9919118,15.4448529 L95.9919118,27.5625 L99.3566176,27.5625 L99.3566176,15.4448529 L104.009559,15.4448529 L104.009559,12.3610294 L91.3389706,12.3610294 L91.3389706,15.4448529 Z M85.6375,21.0698529 C85.6375,23.4801471 84.3919118,24.7183824 82.3389706,24.7183824 C80.2860294,24.7183824 79.0404412,23.4360294 79.0404412,20.9610294 L79.0404412,12.3610294 L75.6757353,12.3610294 L75.6757353,21.0477941 C75.6757353,25.5213235 78.1875,27.8022059 82.2948529,27.8022059 C86.4022059,27.8022059 89.0022059,25.5433824 89.0022059,20.9389706 L89.0022059,12.3610294 L85.6375,12.3610294 L85.6375,21.0698529 Z M69.4066176,20.0051471 C69.4066176,22.6110294 67.5286765,24.7389706 64.8183824,24.7389706 C62.1110294,24.7389706 60.1875,22.5683824 60.1875,19.9625 L60.1875,19.9183824 C60.1875,17.3125 62.0669118,15.1845588 64.7757353,15.1845588 C67.4845588,15.1845588 69.4066176,17.3551471 69.4066176,19.9625 L69.4066176,20.0051471 Z M64.8183824,12.1007353 C60.1007353,12.1007353 56.6698529,15.6404412 56.6698529,19.9625 L56.6698529,20.0051471 C56.6698529,24.3272059 60.0566176,27.8227941 64.7757353,27.8227941 C69.4948529,27.8227941 72.9242647,24.2830882 72.9242647,19.9625 L72.9242647,19.9183824 C72.9242647,15.5963235 69.5375,12.1007353 64.8183824,12.1007353 L64.8183824,12.1007353 Z" id="Fill-1"></path>
                </g>
            </g>
        </g>
    </g>
</svg>