<?xml version="1.0" encoding="UTF-8"?>
<svg width="25px" height="24px" viewBox="0 0 25 24" version="1.1" xmlns="http://www.w3.org/2000/svg" xmlns:xlink="http://www.w3.org/1999/xlink">
    <!-- Generator: Sketch 46.1 (44463) - http://www.bohemiancoding.com/sketch -->
    <title>icon-wallet</title>
    <desc>Created with Sketch.</desc>
    <defs>
        <polygon id="path-1" points="24.4401534 23.7503893 24.4401534 0.11543861 5.08708854e-05 0.11543861 5.08708854e-05 23.7503893"></polygon>
    </defs>
    <g id="Success-Page---Mobile" stroke="none" stroke-width="1" fill="none" fill-rule="evenodd">
        <g id="Mobile_nocall-success-RC1-default" transform="translate(-45.000000, -429.000000)">
            <g id="Group-9" transform="translate(15.000000, 339.000000)">
                <g id="Group-8" transform="translate(13.000000, 14.000000)">
                    <g id="Group" transform="translate(17.000000, 74.000000)">
                        <g id="wallet" transform="translate(0.000000, 2.000000)">
                            <path d="M14.7728031,15.7076322 C14.3032649,15.7076322 13.9227507,16.1210571 13.9227507,16.6308649 C13.9227507,17.1403966 14.3032649,17.5538215 14.7728031,17.5538215 C15.2423414,17.5538215 15.62311,17.1403966 15.62311,16.6308649 C15.62311,16.1210571 15.2423414,15.7076322 14.7728031,15.7076322" id="Fill-1" fill="#333333"></path>
                            <g id="Group-5">
                                <mask id="mask-2" fill="white">
                                    <use xlink:href="#path-1"></use>
                                </mask>
                                <g id="Clip-4"></g>
                                <path d="M18.4702517,13.9577155 L18.4702517,11.437674 C18.4702517,10.2708603 17.6652199,9.30647846 16.6269451,9.1595566 L22.1741608,7.20952783 L23.644075,12.1391431 L18.4702517,13.9577155 Z M17.7071884,21.4507307 C17.7071884,22.262115 17.0992813,22.9218826 16.3522424,22.9218826 L2.1211124,22.9218826 C1.37381911,22.9218826 0.766166393,22.262115 0.766166393,21.4507307 L0.766166393,12.5539488 L0.76311414,12.1396954 L0.76311414,9.09079053 C1.24918544,9.63097695 1.92678563,9.96624602 2.67535069,9.96624602 L6.2497934,9.96624602 L9.70723307,9.96624602 L16.3522424,9.96624602 C17.0992813,9.96624602 17.7071884,10.6262897 17.7071884,11.437674 L17.7071884,21.4507307 Z M2.67535069,4.98526332 L4.85186149,4.98526332 L4.85186149,4.98498715 C4.83075007,5.09959725 4.83380233,5.21807372 4.86788582,5.33157915 L6.00281525,9.13773925 L2.67535069,9.13773925 C1.62105161,9.13773925 0.76311414,8.20622147 0.76311414,7.06150128 C0.76311414,5.91650493 1.62105161,4.98526332 2.67535069,4.98526332 L2.67535069,4.98526332 Z M17.6608959,0.979709255 L18.4745757,3.70715354 L8.7282229,7.13302904 C8.70355052,7.14159027 8.68142168,7.15484638 8.65827543,7.16644548 C8.64326852,7.17390204 8.62698984,7.17942542 8.61274599,7.18826282 C8.59570424,7.19848107 8.58120604,7.21201335 8.56543607,7.22388861 C8.54661384,7.23769706 8.52702855,7.25040083 8.5099868,7.26641863 C8.49625166,7.27939857 8.48480571,7.29486403 8.47208799,7.30922481 C8.45606366,7.32689962 8.43902192,7.34346976 8.42477807,7.36307775 C8.37390719,7.43377699 8.33575402,7.51469449 8.31311648,7.60113536 C8.30701197,7.62433355 8.30472278,7.64836025 8.30090747,7.67211077 C8.29760086,7.69227111 8.29251377,7.7118791 8.29098764,7.7323156 C8.2884441,7.76379886 8.29047893,7.79555828 8.29200506,7.82704154 C8.29276812,7.84057382 8.291242,7.85382993 8.29276812,7.8673622 C8.29760086,7.91265391 8.30650326,7.95794561 8.31972969,8.00240881 L8.65802108,9.13773925 L6.80479475,9.13773925 L5.63298392,5.20785547 L17.6608959,0.979709255 Z M21.1129941,3.65053891 L21.6257726,5.3702428 L10.9075316,9.13773925 L9.46025493,9.13773925 L9.35800445,8.79528979 L9.0848278,7.87868513 L21.1129941,3.65053891 Z M24.4091731,12.0154194 L21.799751,3.26390242 C21.714288,2.97834375 21.4711251,2.78613018 21.1943875,2.78613018 C21.1277467,2.78613018 21.0618689,2.79745311 20.998789,2.81982279 L19.2002488,3.45224963 L18.3481615,0.593625101 C18.2629528,0.307790265 18.01979,0.115300525 17.7425436,0.115300525 C17.6759028,0.115300525 17.610025,0.126623451 17.5471995,0.149269303 L6.14576244,4.15675655 L2.67535069,4.15675655 C1.20034939,4.15675655 5.08708854e-05,5.45972153 5.08708854e-05,7.06150128 L0.00310312396,21.4507307 C0.00310312396,22.7188984 0.953116894,23.7503893 2.1211124,23.7503893 L16.3522424,23.7503893 C17.5202379,23.7503893 18.4702517,22.7188984 18.4702517,21.4507307 L18.4702517,14.8287523 L23.9996625,12.8850754 C24.1611775,12.8284607 24.2929331,12.7063941 24.3700025,12.5423497 C24.4473262,12.3777531 24.4613157,12.1907867 24.4091731,12.0154194 L24.4091731,12.0154194 Z" id="Fill-3" fill="#333333" mask="url(#mask-2)"></path>
                            </g>
                        </g>
                    </g>
                </g>
            </g>
        </g>
    </g>
</svg>