<?xml version="1.0" encoding="UTF-8"?>
<svg width="19px" height="20px" viewBox="0 0 19 20" version="1.1" xmlns="http://www.w3.org/2000/svg" xmlns:xlink="http://www.w3.org/1999/xlink">
    <!-- Generator: Sketch 46.1 (44463) - http://www.bohemiancoding.com/sketch -->
    <title>icon-pick</title>
    <desc>Created with Sketch.</desc>
    <defs></defs>
    <g id="Success-Page---Mobile" stroke="none" stroke-width="1" fill="none" fill-rule="evenodd">
        <g id="Mobile_call-success-RC1-default" transform="translate(-46.000000, -738.000000)" fill="#333333">
            <g id="Group-9" transform="translate(15.000000, 339.000000)">
                <g id="Group-10" transform="translate(31.000000, 394.000000)">
                    <g id="pick" transform="translate(0.000000, 5.000000)">
                        <path d="M14.1833348,0.000166666667 L14.1833348,1.2635 L4.28598696,1.2635 L4.28598696,0.000166666667 L3.4599,0.000166666667 L3.4599,1.2635 L0.000247826087,1.2635 L0.000247826087,19.5651667 L18.5401174,19.5651667 L18.5401174,1.2635 L15.0094217,1.2635 L15.0094217,0.000166666667 L14.1833348,0.000166666667 Z M15.0094217,3.28183333 L15.0094217,2.09683333 L17.7140304,2.09683333 L17.7140304,5.24683333 L0.826334783,5.24683333 L0.826334783,2.09683333 L3.4599,2.09683333 L3.4599,3.28183333 L4.28598696,3.28183333 L4.28598696,2.09683333 L14.1833348,2.09683333 L14.1833348,3.28183333 L15.0094217,3.28183333 Z M0.826334783,6.07933333 L17.7140304,6.07933333 L17.7140304,13.4543333 L12.3362043,13.4543333 L12.3362043,18.7318333 L0.826334783,18.7318333 L0.826334783,6.07933333 Z M13.1622913,14.2876667 L17.1093348,14.2876667 L13.1622913,18.1543333 L13.1622913,14.2876667 Z M17.7140304,14.8568333 L17.7140304,18.7318333 L13.7587261,18.7318333 L17.7140304,14.8568333 Z" id="Fill-1"></path>
                        <polygon id="Fill-2" points="4.65830435 9.27541667 6.76482609 9.27541667 6.76482609 8.44208333 4.65830435 8.44208333"></polygon>
                        <polygon id="Fill-3" points="4.65830435 14.5554167 6.76482609 14.5554167 6.76482609 13.7220833 4.65830435 13.7220833"></polygon>
                        <polygon id="Fill-4" points="12.207913 9.26291667 14.3136087 9.26291667 14.3136087 8.42958333 12.207913 8.42958333"></polygon>
                        <path d="M3.47865217,16.1820833 L8.07169565,16.1820833 L8.07169565,11.9970833 L3.47865217,11.9970833 L3.47865217,16.1820833 Z M2.65256522,17.0154167 L8.89778261,17.0154167 L8.89778261,11.16375 L2.65256522,11.16375 L2.65256522,17.0154167 Z" id="Fill-5"></path>
                    </g>
                </g>
            </g>
        </g>
    </g>
</svg>