<?xml version="1.0" encoding="UTF-8"?>
<svg width="25px" height="17px" viewBox="0 0 25 17" version="1.1" xmlns="http://www.w3.org/2000/svg" xmlns:xlink="http://www.w3.org/1999/xlink">
    <!-- Generator: Sketch 46.1 (44463) - http://www.bohemiancoding.com/sketch -->
    <title>icon-Money</title>
    <desc>Created with Sketch.</desc>
    <defs></defs>
    <g id="Success-Page---Mobile" stroke="none" stroke-width="1" fill="none" fill-rule="evenodd">
        <g id="Mobile_nocall-success-RC1-default" transform="translate(-45.000000, -625.000000)" fill="#333333">
            <g id="Group-9" transform="translate(15.000000, 339.000000)">
                <g id="Group-8" transform="translate(13.000000, 14.000000)">
                    <g id="Billing-Address" transform="translate(17.000000, 265.000000)">
                        <g id="Group-6">
                            <g id="Money" transform="translate(0.000000, 7.000000)">
                                <polygon id="XMLID_2409_" points="4.63541667 0.377777778 4.63541667 3.02222222 5.49382716 3.02222222 5.49382716 1.32222222 23.6062886 1.32222222 23.6062886 12.0888889 21.8894676 12.0888889 21.8894676 13.0333333 24.4646991 13.0333333 24.4646991 0.377777778"></polygon>
                                <path d="M16.9106867,3.96666667 L4.20621142,3.96666667 L0.600887346,3.96666667 L0.600887346,7.93333333 L0.600887346,12.6555556 L0.600887346,16.6222222 L4.20621142,16.6222222 L16.9106867,16.6222222 L20.5160108,16.6222222 L20.5160108,16.6222222 L20.5160108,12.6555556 L20.5160108,12.6555556 L20.5160108,7.93333333 L20.5160108,7.93333333 L20.5160108,3.96666667 L20.5160108,3.96666667 L16.9106867,3.96666667 L16.9106867,3.96666667 Z M19.6576003,12.75 C18.2841435,12.9388889 17.1682099,14.1666667 16.9965278,15.6777778 L4.20621142,15.6777778 C4.03452932,14.1666667 2.91859568,12.9388889 1.54513889,12.75 L1.54513889,7.93333333 C2.91859568,7.74444444 4.03452932,6.51666667 4.20621142,5.00555556 L16.9965278,5.00555556 C17.1682099,6.51666667 18.2841435,7.74444444 19.6576003,7.93333333 L19.6576003,12.75 L19.6576003,12.75 Z" id="XMLID_2410_"></path>
                                <ellipse id="XMLID_2413_" cx="10.8159722" cy="10.2944444" rx="2.14602623" ry="2.36111111"></ellipse>
                            </g>
                        </g>
                    </g>
                </g>
            </g>
        </g>
    </g>
</svg>